<mxfile host="app.diagrams.net" modified="2024-06-03T16:08:31.856Z" agent="Mozilla/5.0 (Windows NT 10.0; Win64; x64) AppleWebKit/537.36 (KHTML, like Gecko) Chrome/124.0.0.0 Safari/537.36" etag="T3aBFrrbSJkO8GO6AkBx" version="24.4.13" type="github">
  <diagram id="FLARmqn-sCxhorqhwDuB" name="Page-1">
    <mxGraphModel dx="1341" dy="703" grid="0" gridSize="10" guides="1" tooltips="1" connect="1" arrows="1" fold="1" page="1" pageScale="1" pageWidth="3300" pageHeight="4681" math="0" shadow="0">
      <root>
        <mxCell id="0" />
        <mxCell id="1" parent="0" />
        <mxCell id="z_qD1HKAoeuYG7XRLIYZ-283" value="" style="rounded=1;whiteSpace=wrap;html=1;strokeWidth=3;dashed=1;" vertex="1" parent="1">
          <mxGeometry x="113.89" y="881.43" width="737.95" height="379.57" as="geometry" />
        </mxCell>
        <mxCell id="z_qD1HKAoeuYG7XRLIYZ-76" style="edgeStyle=orthogonalEdgeStyle;rounded=0;orthogonalLoop=1;jettySize=auto;html=1;exitX=1;exitY=0.5;exitDx=0;exitDy=0;strokeWidth=2;" edge="1" parent="1" source="z_qD1HKAoeuYG7XRLIYZ-77">
          <mxGeometry relative="1" as="geometry">
            <mxPoint x="593.1300366210937" y="115.73000000000002" as="targetPoint" />
          </mxGeometry>
        </mxCell>
        <mxCell id="z_qD1HKAoeuYG7XRLIYZ-77" value="" style="rounded=0;whiteSpace=wrap;html=1;strokeWidth=2;" vertex="1" parent="1">
          <mxGeometry x="389.03" y="73.23000000000002" width="180" height="84" as="geometry" />
        </mxCell>
        <mxCell id="z_qD1HKAoeuYG7XRLIYZ-78" style="edgeStyle=orthogonalEdgeStyle;rounded=0;orthogonalLoop=1;jettySize=auto;html=1;exitX=1;exitY=0.5;exitDx=0;exitDy=0;strokeWidth=2;" edge="1" parent="1" source="z_qD1HKAoeuYG7XRLIYZ-79">
          <mxGeometry relative="1" as="geometry">
            <mxPoint x="382.5799877929687" y="115.73000000000002" as="targetPoint" />
          </mxGeometry>
        </mxCell>
        <mxCell id="z_qD1HKAoeuYG7XRLIYZ-79" value="" style="rounded=0;whiteSpace=wrap;html=1;shadow=0;glass=0;sketch=0;fillStyle=auto;strokeColor=#000000;strokeWidth=2;fontFamily=Times New Roman;fontSize=20;fillColor=#FFFFFF;gradientColor=none;" vertex="1" parent="1">
          <mxGeometry x="227.00000000000003" y="30.730000000000018" width="129.78" height="169" as="geometry" />
        </mxCell>
        <mxCell id="z_qD1HKAoeuYG7XRLIYZ-80" style="edgeStyle=orthogonalEdgeStyle;orthogonalLoop=1;jettySize=auto;html=1;strokeWidth=2;fontFamily=Times New Roman;fontSize=20;rounded=0;" edge="1" parent="1">
          <mxGeometry relative="1" as="geometry">
            <mxPoint x="220" y="112" as="targetPoint" />
            <mxPoint x="178" y="112" as="sourcePoint" />
          </mxGeometry>
        </mxCell>
        <mxCell id="z_qD1HKAoeuYG7XRLIYZ-81" value="" style="whiteSpace=wrap;html=1;aspect=fixed;fillColor=#FFFF00;shadow=0;strokeColor=#000000;rounded=0;sketch=0;glass=0;strokeWidth=2;fillStyle=auto;perimeterSpacing=0;fontSize=20;" vertex="1" parent="1">
          <mxGeometry x="243.98" y="89.73000000000002" width="91.8" height="91.8" as="geometry" />
        </mxCell>
        <mxCell id="z_qD1HKAoeuYG7XRLIYZ-82" value="" style="whiteSpace=wrap;html=1;aspect=fixed;rounded=0;shadow=0;glass=0;sketch=0;fillStyle=auto;strokeColor=#000000;strokeWidth=0;fillColor=#0000FF;fontSize=20;" vertex="1" parent="1">
          <mxGeometry x="253.78" y="102.73000000000002" width="23" height="23" as="geometry" />
        </mxCell>
        <mxCell id="z_qD1HKAoeuYG7XRLIYZ-83" value="Input Layer" style="text;html=1;strokeColor=none;fillColor=none;align=center;verticalAlign=middle;whiteSpace=wrap;rounded=0;shadow=0;glass=0;sketch=0;fillStyle=auto;strokeWidth=1;fontFamily=Times New Roman;fontSize=20;" vertex="1" parent="1">
          <mxGeometry x="241.50000000000003" y="43.73000000000002" width="104" height="30" as="geometry" />
        </mxCell>
        <mxCell id="z_qD1HKAoeuYG7XRLIYZ-84" value="Patient Scores" style="text;html=1;strokeColor=none;fillColor=none;align=center;verticalAlign=middle;whiteSpace=wrap;rounded=0;shadow=0;glass=0;sketch=0;fillStyle=auto;strokeWidth=1;fontFamily=Times New Roman;fontSize=21;fontStyle=1" vertex="1" parent="1">
          <mxGeometry x="29.849999999999994" y="193.98000000000002" width="163" height="30" as="geometry" />
        </mxCell>
        <mxCell id="z_qD1HKAoeuYG7XRLIYZ-85" value="" style="whiteSpace=wrap;html=1;aspect=fixed;rounded=0;shadow=0;glass=0;sketch=0;fillStyle=auto;strokeColor=#000000;strokeWidth=0;fillColor=#FFFF00;fontSize=20;" vertex="1" parent="1">
          <mxGeometry x="149.7" y="323.27" width="84.82" height="84.82" as="geometry" />
        </mxCell>
        <mxCell id="z_qD1HKAoeuYG7XRLIYZ-86" style="edgeStyle=orthogonalEdgeStyle;rounded=0;orthogonalLoop=1;jettySize=auto;html=1;exitX=0.5;exitY=0;exitDx=0;exitDy=0;entryX=0.5;entryY=1;entryDx=0;entryDy=0;strokeWidth=2;" edge="1" parent="1" source="z_qD1HKAoeuYG7XRLIYZ-87" target="z_qD1HKAoeuYG7XRLIYZ-93">
          <mxGeometry relative="1" as="geometry" />
        </mxCell>
        <mxCell id="z_qD1HKAoeuYG7XRLIYZ-87" value="Batch Normalization" style="rounded=0;whiteSpace=wrap;html=1;shadow=0;glass=0;sketch=0;fillStyle=auto;strokeColor=#000000;strokeWidth=2;fillColor=#FFFF00;gradientColor=none;direction=south;textDirection=ltr;horizontal=0;fontFamily=Times New Roman;fontSize=22;fontStyle=0" vertex="1" parent="1">
          <mxGeometry x="599.53" y="28.049999999999955" width="71.75" height="174.36" as="geometry" />
        </mxCell>
        <mxCell id="z_qD1HKAoeuYG7XRLIYZ-88" value="&lt;span style=&quot;font-size: 17px;&quot;&gt;&lt;font color=&quot;#ffffff&quot; style=&quot;font-size: 17px;&quot;&gt;Dense Layer&lt;/font&gt;&lt;/span&gt;" style="rounded=1;whiteSpace=wrap;html=1;fillColor=#FF0000;strokeWidth=2;fontSize=17;" vertex="1" parent="1">
          <mxGeometry x="407.3399999999999" y="90.96000000000004" width="143.37" height="46" as="geometry" />
        </mxCell>
        <mxCell id="z_qD1HKAoeuYG7XRLIYZ-89" value="&lt;b style=&quot;font-size: 20px;&quot;&gt;&lt;font style=&quot;font-size: 20px;&quot;&gt;Dense Layer&lt;/font&gt;&lt;br style=&quot;font-size: 20px;&quot;&gt;&lt;/b&gt;" style="text;html=1;strokeColor=none;fillColor=none;align=center;verticalAlign=middle;whiteSpace=wrap;rounded=0;shadow=0;glass=0;sketch=0;fillStyle=auto;strokeWidth=1;fontFamily=Times New Roman;fontSize=20;" vertex="1" parent="1">
          <mxGeometry x="454" y="272.27" width="153" height="30" as="geometry" />
        </mxCell>
        <mxCell id="z_qD1HKAoeuYG7XRLIYZ-90" value="" style="endArrow=none;dashed=1;html=1;rounded=0;strokeWidth=3;" edge="1" parent="1">
          <mxGeometry width="50" height="50" relative="1" as="geometry">
            <mxPoint x="48" y="249" as="sourcePoint" />
            <mxPoint x="1075" y="249" as="targetPoint" />
          </mxGeometry>
        </mxCell>
        <mxCell id="z_qD1HKAoeuYG7XRLIYZ-92" style="edgeStyle=orthogonalEdgeStyle;rounded=0;orthogonalLoop=1;jettySize=auto;html=1;exitX=0.5;exitY=0;exitDx=0;exitDy=0;entryX=0;entryY=0.5;entryDx=0;entryDy=0;strokeWidth=2;" edge="1" parent="1" source="z_qD1HKAoeuYG7XRLIYZ-93" target="z_qD1HKAoeuYG7XRLIYZ-125">
          <mxGeometry relative="1" as="geometry" />
        </mxCell>
        <mxCell id="z_qD1HKAoeuYG7XRLIYZ-93" value="Dropout Layer" style="rounded=0;whiteSpace=wrap;html=1;shadow=0;glass=0;sketch=0;fillStyle=auto;strokeColor=#000000;strokeWidth=2;fillColor=#FFFF00;gradientColor=none;direction=south;textDirection=ltr;horizontal=0;fontFamily=Times New Roman;fontSize=20;" vertex="1" parent="1">
          <mxGeometry x="701.53" y="36.48000000000002" width="50" height="157.5" as="geometry" />
        </mxCell>
        <mxCell id="z_qD1HKAoeuYG7XRLIYZ-94" value="Output Layer" style="rounded=0;whiteSpace=wrap;html=1;shadow=0;glass=0;sketch=0;fillStyle=auto;strokeColor=#000000;strokeWidth=2;fillColor=#FFFF00;gradientColor=none;direction=south;textDirection=ltr;horizontal=0;fontFamily=Times New Roman;fontSize=20;" vertex="1" parent="1">
          <mxGeometry x="1028.28" y="36.23000000000002" width="46" height="158" as="geometry" />
        </mxCell>
        <mxCell id="z_qD1HKAoeuYG7XRLIYZ-97" value="" style="whiteSpace=wrap;html=1;aspect=fixed;rounded=0;shadow=0;glass=0;sketch=0;fillStyle=auto;strokeColor=#000000;strokeWidth=0;fillColor=#0000FF;fontSize=20;" vertex="1" parent="1">
          <mxGeometry x="163.7" y="338.70000000000005" width="84.82" height="84.82" as="geometry" />
        </mxCell>
        <mxCell id="z_qD1HKAoeuYG7XRLIYZ-98" value="" style="whiteSpace=wrap;html=1;aspect=fixed;rounded=0;shadow=0;glass=0;sketch=0;fillStyle=auto;strokeColor=#000000;strokeWidth=0;fillColor=#FFFF00;fontSize=20;" vertex="1" parent="1">
          <mxGeometry x="178.70000000000002" y="357.27" width="84.82" height="84.82" as="geometry" />
        </mxCell>
        <mxCell id="z_qD1HKAoeuYG7XRLIYZ-101" value="" style="whiteSpace=wrap;html=1;aspect=fixed;rounded=0;shadow=0;glass=0;sketch=0;fillStyle=auto;strokeColor=#000000;strokeWidth=0;fillColor=#0000FF;fontSize=20;" vertex="1" parent="1">
          <mxGeometry x="195.70000000000002" y="378.27" width="84.82" height="84.82" as="geometry" />
        </mxCell>
        <mxCell id="z_qD1HKAoeuYG7XRLIYZ-102" value="" style="whiteSpace=wrap;html=1;aspect=fixed;rounded=0;shadow=0;glass=0;sketch=0;fillStyle=auto;strokeColor=#000000;strokeWidth=0;fillColor=#FF0000;fontSize=20;" vertex="1" parent="1">
          <mxGeometry x="348.47" y="331.06000000000006" width="84.82" height="84.82" as="geometry" />
        </mxCell>
        <mxCell id="z_qD1HKAoeuYG7XRLIYZ-103" value="" style="whiteSpace=wrap;html=1;aspect=fixed;rounded=0;shadow=0;glass=0;sketch=0;fillStyle=auto;strokeColor=#000000;strokeWidth=0;fillColor=#FFFF00;fontSize=20;" vertex="1" parent="1">
          <mxGeometry x="362.47" y="346.4900000000001" width="84.82" height="84.82" as="geometry" />
        </mxCell>
        <mxCell id="z_qD1HKAoeuYG7XRLIYZ-104" value="" style="whiteSpace=wrap;html=1;aspect=fixed;rounded=0;shadow=0;glass=0;sketch=0;fillStyle=auto;strokeColor=#000000;strokeWidth=0;fillColor=#FF0000;fontSize=20;" vertex="1" parent="1">
          <mxGeometry x="377.47" y="365.06000000000006" width="84.82" height="84.82" as="geometry" />
        </mxCell>
        <mxCell id="z_qD1HKAoeuYG7XRLIYZ-128" style="edgeStyle=orthogonalEdgeStyle;rounded=0;orthogonalLoop=1;jettySize=auto;html=1;exitX=1;exitY=0;exitDx=0;exitDy=0;entryX=0;entryY=0.75;entryDx=0;entryDy=0;strokeWidth=2;" edge="1" parent="1" source="z_qD1HKAoeuYG7XRLIYZ-106" target="z_qD1HKAoeuYG7XRLIYZ-110">
          <mxGeometry relative="1" as="geometry">
            <Array as="points">
              <mxPoint x="479.42999999999995" y="390.15" />
            </Array>
          </mxGeometry>
        </mxCell>
        <mxCell id="z_qD1HKAoeuYG7XRLIYZ-106" value="" style="whiteSpace=wrap;html=1;aspect=fixed;rounded=0;shadow=0;glass=0;sketch=0;fillStyle=auto;strokeColor=#000000;strokeWidth=0;fillColor=#FFFF00;fontSize=20;" vertex="1" parent="1">
          <mxGeometry x="394.47" y="386.06000000000006" width="84.82" height="84.82" as="geometry" />
        </mxCell>
        <mxCell id="z_qD1HKAoeuYG7XRLIYZ-110" value="" style="whiteSpace=wrap;html=1;aspect=fixed;rounded=0;shadow=0;glass=0;sketch=0;fillStyle=auto;strokeColor=#000000;strokeWidth=0;fillColor=#FF0000;fontSize=20;" vertex="1" parent="1">
          <mxGeometry x="555.43" y="326.65000000000003" width="84.82" height="84.82" as="geometry" />
        </mxCell>
        <mxCell id="z_qD1HKAoeuYG7XRLIYZ-111" value="" style="whiteSpace=wrap;html=1;aspect=fixed;rounded=0;shadow=0;glass=0;sketch=0;fillStyle=auto;strokeColor=#000000;strokeWidth=0;fillColor=#FFFF00;fontSize=20;" vertex="1" parent="1">
          <mxGeometry x="569.43" y="342.0800000000001" width="84.82" height="84.82" as="geometry" />
        </mxCell>
        <mxCell id="z_qD1HKAoeuYG7XRLIYZ-112" value="" style="whiteSpace=wrap;html=1;aspect=fixed;rounded=0;shadow=0;glass=0;sketch=0;fillStyle=auto;strokeColor=#000000;strokeWidth=0;fillColor=#FF0000;fontSize=20;" vertex="1" parent="1">
          <mxGeometry x="584.43" y="360.65000000000003" width="84.82" height="84.82" as="geometry" />
        </mxCell>
        <mxCell id="z_qD1HKAoeuYG7XRLIYZ-129" style="edgeStyle=orthogonalEdgeStyle;rounded=0;orthogonalLoop=1;jettySize=auto;html=1;exitX=1;exitY=0;exitDx=0;exitDy=0;entryX=0;entryY=0.75;entryDx=0;entryDy=0;strokeWidth=2;" edge="1" parent="1" source="z_qD1HKAoeuYG7XRLIYZ-114" target="z_qD1HKAoeuYG7XRLIYZ-117">
          <mxGeometry relative="1" as="geometry">
            <Array as="points">
              <mxPoint x="686.43" y="386.15" />
            </Array>
          </mxGeometry>
        </mxCell>
        <mxCell id="z_qD1HKAoeuYG7XRLIYZ-114" value="" style="whiteSpace=wrap;html=1;aspect=fixed;rounded=0;shadow=0;glass=0;sketch=0;fillStyle=auto;strokeColor=#000000;strokeWidth=0;fillColor=#FFFF00;fontSize=20;" vertex="1" parent="1">
          <mxGeometry x="601.43" y="381.65000000000003" width="84.82" height="84.82" as="geometry" />
        </mxCell>
        <mxCell id="z_qD1HKAoeuYG7XRLIYZ-117" value="" style="whiteSpace=wrap;html=1;aspect=fixed;rounded=0;shadow=0;glass=0;sketch=0;fillStyle=auto;strokeColor=#000000;strokeWidth=0;fillColor=#FFFF00;fontSize=20;" vertex="1" parent="1">
          <mxGeometry x="762.0799999999999" y="323.26999999999987" width="84.09" height="84.09" as="geometry" />
        </mxCell>
        <mxCell id="z_qD1HKAoeuYG7XRLIYZ-118" value="" style="whiteSpace=wrap;html=1;aspect=fixed;rounded=0;shadow=0;glass=0;sketch=0;fillStyle=auto;strokeColor=#000000;strokeWidth=0;fillColor=#0000FF;fontSize=20;" vertex="1" parent="1">
          <mxGeometry x="776.0799999999999" y="338.70000000000016" width="84.82" height="84.82" as="geometry" />
        </mxCell>
        <mxCell id="z_qD1HKAoeuYG7XRLIYZ-119" value="" style="whiteSpace=wrap;html=1;aspect=fixed;rounded=0;shadow=0;glass=0;sketch=0;fillStyle=auto;strokeColor=#000000;strokeWidth=0;fillColor=#FFFF00;fontSize=20;" vertex="1" parent="1">
          <mxGeometry x="791.0799999999999" y="357.2700000000001" width="84.82" height="84.82" as="geometry" />
        </mxCell>
        <mxCell id="z_qD1HKAoeuYG7XRLIYZ-120" value="" style="whiteSpace=wrap;html=1;aspect=fixed;rounded=0;shadow=0;glass=0;sketch=0;fillStyle=auto;strokeColor=#000000;strokeWidth=0;fillColor=#0000FF;fontSize=20;" vertex="1" parent="1">
          <mxGeometry x="808.0799999999999" y="378.2700000000001" width="84.82" height="84.82" as="geometry" />
        </mxCell>
        <mxCell id="z_qD1HKAoeuYG7XRLIYZ-122" value="&lt;font color=&quot;#ffffff&quot; style=&quot;font-size: 17px;&quot;&gt;Input Layer&lt;/font&gt;" style="rounded=1;whiteSpace=wrap;html=1;fillColor=#FF0000;strokeWidth=2;fontSize=17;fontStyle=0" vertex="1" parent="1">
          <mxGeometry x="144.57" y="503.77" width="153.07" height="50.5" as="geometry" />
        </mxCell>
        <mxCell id="z_qD1HKAoeuYG7XRLIYZ-123" value="&lt;font color=&quot;#ffffff&quot; style=&quot;font-size: 17px;&quot;&gt;Output Layer&lt;/font&gt;" style="rounded=1;whiteSpace=wrap;html=1;fillColor=#FF0000;strokeWidth=2;fontSize=17;fontStyle=0" vertex="1" parent="1">
          <mxGeometry x="759.43" y="500.65" width="157" height="54" as="geometry" />
        </mxCell>
        <mxCell id="z_qD1HKAoeuYG7XRLIYZ-124" style="edgeStyle=orthogonalEdgeStyle;rounded=0;orthogonalLoop=1;jettySize=auto;html=1;exitX=1;exitY=0.5;exitDx=0;exitDy=0;entryX=0.5;entryY=1;entryDx=0;entryDy=0;strokeWidth=2;" edge="1" parent="1" source="z_qD1HKAoeuYG7XRLIYZ-125" target="z_qD1HKAoeuYG7XRLIYZ-94">
          <mxGeometry relative="1" as="geometry" />
        </mxCell>
        <mxCell id="z_qD1HKAoeuYG7XRLIYZ-125" value="&lt;font style=&quot;font-size: 17px;&quot; color=&quot;#ffffff&quot;&gt;Residual Connection&lt;/font&gt;" style="rounded=1;whiteSpace=wrap;html=1;fillColor=#0000FF;fontSize=17;strokeWidth=2;" vertex="1" parent="1">
          <mxGeometry x="782.4399999999999" y="86.23" width="214.84" height="60" as="geometry" />
        </mxCell>
        <mxCell id="z_qD1HKAoeuYG7XRLIYZ-126" value="Hidden Layer 1" style="rounded=1;whiteSpace=wrap;html=1;fontSize=17;strokeWidth=2;fillColor=#FFFF00;fontStyle=0" vertex="1" parent="1">
          <mxGeometry x="335.65999999999997" y="500.65" width="168.43" height="51" as="geometry" />
        </mxCell>
        <mxCell id="z_qD1HKAoeuYG7XRLIYZ-127" value="Hidden Layer N" style="rounded=1;whiteSpace=wrap;html=1;fontSize=17;strokeWidth=2;fillColor=#FFFF00;fontStyle=0" vertex="1" parent="1">
          <mxGeometry x="546.43" y="500.65" width="167" height="52.5" as="geometry" />
        </mxCell>
        <mxCell id="z_qD1HKAoeuYG7XRLIYZ-131" style="edgeStyle=orthogonalEdgeStyle;rounded=0;orthogonalLoop=1;jettySize=auto;html=1;exitX=1;exitY=0;exitDx=0;exitDy=0;entryX=0.007;entryY=0.655;entryDx=0;entryDy=0;entryPerimeter=0;strokeWidth=2;" edge="1" parent="1" source="z_qD1HKAoeuYG7XRLIYZ-101" target="z_qD1HKAoeuYG7XRLIYZ-102">
          <mxGeometry relative="1" as="geometry">
            <Array as="points">
              <mxPoint x="280.65999999999997" y="386.27" />
            </Array>
          </mxGeometry>
        </mxCell>
        <mxCell id="z_qD1HKAoeuYG7XRLIYZ-132" value="" style="shape=image;verticalLabelPosition=bottom;labelBackgroundColor=default;verticalAlign=top;aspect=fixed;imageAspect=0;image=data:image/png,iVBORw0KGgoAAAANSUhEUgAAAZUAAAIACAYAAABKGPFWAAAAAXNSR0IArs4c6QAAAARnQU1BAACxjwv8YQUAAAAJcEhZcwAADsQAAA7EAZUrDhsAADwESURBVHhe7d0HmCxVufXx4wcoSpCMCAYURVBQsgkQL0FREAOIREUkmDBeMedr5oLpKioIGFByUFEEFLyIBCUpiCBIkChBQEHA+61VVX2Yc9gzU1V7V3eF/+951lNVB87M9HSffruq9n73w+aEbaLspmyorKA8XAGAvvs/5XblPuUu5UblqiKXK2cplyj+/xAwf1FZXDlE2SY7AgDM72/KmcoxytHKHQoKU4vKIsrpytrZEQBgNvcoJyhfVvz+OXj/r9jaAQoFBQDKW1jZVvmlcpriWweDNjpTWVX5vbJAdgQAqMtnLm9Urs2OBmZ0pvJqhYICAPG2UvwhfW9lusFQvTUqKusWWwBAPA96+qris5Yl/AdDMSoqyxZbAEA6L1F+o6yeHQ3AqKhw6QsAmvFUxfNbNsuOem7q6C8AQDMWU05UXpUd9RhFBQDGw51JDlfcraS3KCoAMD6+1fBNxSPDeomiAgDj5WHGX1H2yo56hqICAOPnwuIhx70rLBQVAJiMUWHZMzvqmbMVt3Kuk/UUAOiC9yqh97FJ5gFlV6UXOFMBgHK+pXxScev7lPw+fJCyc3bUcRQVACjHC3Z9QFlF+aLybyUVvxcfrHS+sFBUAKAarwy5j+IWLLf5DxLxcGMXlh2zo46iqABAPScpvqfs5YVTcWHx6ruvyY46iKICAPVdoTxPcdPIVFxYDlN2yo46hqICAHF8CWwLxevWpzK6FOa1rjqFogIA8e5QNldSrlO/oPJdZYfsqCMoKgCQxt3KlkrKwuIzlkOVztxjoagAQDouLF5O2OunpDK6x7J9dtRyFBUASOvvyouU1Dfvv6O0vrBQVAAgPd9j8c371IXFl8K2yY5aiqICAM0YFRb3VkxlIeWHSmsLC0UFAJozGhXWRGF5WXbUMhQVAGjW6IzlnOwojdYWFooKADTP/cJ8xpKysHjNexeWrbOjlqCoAMB4jArLudlRGi4sRygextwKFBUAGB8Xls2U87KjNFxYjlRaUVgoKgAwXk0WlpdmRxNEUQGA8XMTSheW32ZHabiwHKVMtLBQVABgMlxYPPP+ouwojdEZixcQmwiKCgBMzs3KfygpC8sjFJ+xuLnl2FFUAGCyRoXl4uwoDRcWn7Fsmh2NEUUFACavicLySOV4xV93bCgqANAONykuAL/PjtIYFZYXZkdjQFEBgPZwYXEBSFlYHqWcoIylsFBUgIfy9egllccrT1HWKfJ05UnKMspiCtCE0RnLH7KjNEaFZZPsqEEPK7buoLlevlvZ+krKfjZAk7wmhQvFk5UnKitP2T5OWVapwiv9XadcqVw13/ZSxQs2oT3eq/xXvluZ/977892xWF45VVk9O0rjH4rnsZyWHTXIReX/aqZuMQLGYQXF7Ss+oviT2q1K6HXcVK5QvLDSPsrzFc8jwOS4qISepzL5pDJuLiw+Ywn9PHXjD0IvUBpFUUFf+Maki8g3lWuU0Gt2krlT+anyJsVnRhivrhUVe4ySurDcpTRaWCgq6LKllG0VnxH4clPoddrW+IbspxWfxYwuR6M5XSwqtpLyJyX0c9WNC8vGSiMoKugaDzJxi4tjlfuV0Guza7lE8WWyJRQ0o6tFxVxYLldCP1vduLBspCRHUUFX+A3Xb7y+VxF6PfYh9yhefGnss6EHoMtFxXzJtBOFhaKCtnuq4stbfsMNvQ77Go+sfKXCpbE0ul5UrInC4iWPn61EY54K2s7/gL6u+N7DzornkAzJuop7OF2g+L4R4AEonm/y5+wojcWVk5QNsqMIFBW0lScY+gb2ZcoeyoLKkK2h+JLYmcrYWm6gtZooLI9WPDLRcw9ro6igbVw89lU8gfA9ysIKHvQc5RTFc2484x/DdbXiwuKJtqm4sPxMqV1YKCpokzWVXyufUhbxH2BanhXt0WIuvO4SgGFyYfF8kyYKS6375RQVtIHPRjzj3TelfQ8B5bifky8Rnq6s5j/AII3OWHx2n0rtwkJRwaT5NNs3oT+s0MKknucqXuvcZy2MEhumvyg+Y0lZWDx834Wl0gc9igomaRflF4qHCyOOz/Z81uJ7LUyeHKamCsvJSunCQlHBJHhY8IHKIYp7dbXNfYo7D3tkzYXKeUV8RuU/u1bxuP42eolylpKysy26w4VlM8Wv31RcWDzc2Pc8S2PyI8bFrSb8phd6LY0ztyseRfUVxTP03fLF9yWWVspyQfRZlof4+qzLk+NOVFx0Qt9znHEPNE+axLz6MPmxDC/vkPp16HVeSl9VoKhgHPxauUEJvY6ajj+5HaS8VnHxaPos3fNsXqx8Tjlf+bcS+rmajL+nB0DgQUMpKtZEYXF7JC8nMSuKCprmPlZu+x56DTUVX7L6T8UTBydtOWUHxQ0wx91q5qsKl7pzQyoqtqryVyX0eOrG/65mnT9GUUGTfBlmXG+kvqbsT+f+x9RWXqp4d8Wr743rDOb7ykLK0A2tqJgvWflMPfSY6saXjWdEUUFTtlH+pYReOynzK8W9sbrWzsWXKA5QvMxr6HGljHuIDb3dzRCLivmS7/VK6HHVzauUaVFU0IQtlXuV0OsmRfwp/3hlLaXrfHnso8ptSuixpopH3A35UthQi4qlvhR2o+JGlEEUFaTmCXn/VEKvmRRxi5I+vvY8+sxnLk2e3fnrD9WQi4qlLiyfUIIoKkjJl3RuVkKvl1TxPRo3V+wr/w6PUkKPPUXepgzR0IuKPV3xWUboMVaNL9t6Oe+5GBGC1PxJ+0eKh9Q2yRMo/aa7YnbUP16P3AMcXq74DSC1Lygvy3cxMF6byGvTe3h/LM/V2infzVFUkJJfT4cp/pQ9Dh4v77YkbqzYVx6C7Jus/r2m5OfqOwqNKIfpUmVzxVcUYr2u2GYoKkjp/Yon/I2Tb9J7Zcg+8817z9j3ype+3JDKosoPlD4XZUzvIsUtXW7Njup7prJsvktRQTpuvT2p2ds+/R7CzHGfWWyoeJZ0Kp4Y+uV8FwPkfnZuUeS2PnW5M/bz8l2KCtLw2gsHK5N8Pbl1vlu/951b3PvszGuopOLLF/QJGy6vY/T6fLe2ZxRbigqS8BDVJ+S7E+UVI/fOd3vtFsXXw4/LjtJwK5e5lzAwOJ4Y+/N8t5bHFVuKCqL5Hsqu+e7E+TTcl3J8/6HvPKl0OyVVYfHkyyHPX8GcOUcU2zrmNpmkqCCGm8p9Md+Ndn+xjeXXtLsR+6Z233mCZMrC8hrFbfwxTF4rqK6HtP9h8iPq+JASek1UjUc3raOkXGfFLVzepQyBl2H+sRL6PVTNH5Q+L+scM/mRTB8v4jUPigqqeqxytxJ6TVSJL+OMPh17ImPq9VY8yW8I67Z7sIRb14R+B1XjRcv6iqLSTLzkcIbLX6jLZykp5jfspZya72btud1p2Mv5pvIO5VCl723fvbyxZ8j7rC/W+5TF8l2glLm1hKKCOjxjfrd8N8q3FQ9FnuoMJfUnZc9j+anim9F9dpni+yIPZEf1+ff09nwXKGWBYjsXl79QhQtB6LVQJb52v4gync8oob8Xk2uUDZS+c+PD0OOvEp/xTNvWvMO4/NVMvODcPCgqKMv3PWLXSPGoJbd2mInvg3gGeejvx8TdjfdU+szNNt00MPT4q6SPAx0oKs1kblHh8heq8qWp2NFB+yluDzETv1B9iS1mQlaI33C/pvhsa6YzpS5z0ffvLvYymNvj93kkGBrEmQrK8I352JUJPRa+yg1+3zA+Uwl9rdi4vfzcnkU99Hkl9LirZAelT96thB4nicsvlAxnKqjCI7OWyHdr85lOlU67dypueOc5LKmtovxS8f0bn8H0jZtsxrY2373Y9sVNxRZpubDMgzMVlPErJfQaKJv/VeryPIzfKKGvmyJuA7620jceUh16vGXjSaTjWh9nHLzqYehxkrhwox6VeW3r0PNfJbEtQHyW9Gsl9LVTxPNj3HYm9mysTbwyn+f/hB5v2fRlGd2R85XQ4yT1M/fy1whFBbP5oBJ6/stmNMExlm+up2pJMl18icStwPtyefiNSuhxlo3vPfWJL6f6DCz0WEm9UFRQ2YVK6Pkvm5cqqXh2vJfXDX2flPHltvWVrvMIruuV0GMsG6/h0icfV0KPk9QLRQWVxF768oiv1J/6PY/lKCX0/VLGn2iPVuYuQtRRn1ZCj69s/kvpm7cqHjQSerykWigqqMQtO0LPfdk0MYnOy+repYS+XxPxnI8fKk9VuuhJSswlH6842UcrKb5n5Md3uxJ67GT2UFRQyU+U0HNfJr75nXpFwRcoKTok14kfj9drWV3pGo/QCT2mMnFBWl5Bf7khaei5LxNm1KM0L8S1cb5biz/BxM6VmMrL6J6opOiQXIcXI/Ka7hcrP1K6tKjVN4ttHb7cuFm+C0yPooLZ+EzUw1Lr8trXqbxB8Rt5G9qr+E12S+UUxZdO3Am57RMoj1fcd62ujYotMC2KCmbz7GJbh+9DHJPvRnFbbc96P1B5yLKlLeCRUR6N5vkg+ytrKG3k7gRueVPXc4otMC2KCmYTU1TOU2LbYjxe8RyX/8yO2m1pxW1oPPzaw5H3UNwJoE1+Vmzr8H2ktj0etAxFBbOJmadxerGty73GPPu5i5dd/Hv7unKj4stOOytteEP2YmV1+f2CgTmYEUUFM1lS8ZDLutyssQ43evTNeA/h9c/QZb7PspXiJY1dYI5TXGBSj4gry0U65uyx6/N10DCKCmYSM2zW91PcgLIK99zyJDuPrHqJ/yCxS5V/5rsT4QKzteICc4PiofwfU3yv4iHLsTbEQ4NjOj67ISMwLYoKZhLzqdSz6D2ZrIwVlM8qVytema+JUVQeoeU3bxdKX46atNGlJPdU881znz145r4XxlpXaXJAgleFrKuL83MwAUx+RIjf6EPPeZkcq8zEn8y3ULxksJf4DX2NVPGb6DLKVO5FdoUS+v/bkL8rvv/xIcVnbY9VUvHCW6HvWSa+hId+SjL5cYSigpDDldBzXiahXlGesOgOsf+txLZjLxt32J3uDdlnRG4hc6sS+rtti5tCukPzJ5TtFQ9lrjNnZ00l9PXLxJfPYuYtob0oKmhczDK+r1WepmynuMD4Rdf0Gcn8uVJ5gjKbpRQvvTvuny9V/qKcrHxF2VfxREz3RltZCa0x72LqSZChr1UmbjCK/qGooHHXKKHnvEzuD/zZOOM5Mr5XU4ULkIcB36uEvmZXc4viQQpeedP3kw5WYppxbqqgfygqaFxXP7l7gt/iSl2ecHmA4pFioa8/9PjSG/qHhpJolO9/NDEKq2nfUNyTyze66/IoNM+M92We/ZSYr9VHXZ87hPRcWDIUFUzH9xm6xJesvO6LW6P40lsKLi7vVHzm4jYx1yro3msDY0RRwXRiLh+Nm+8XuEeZmzk24Q7lc4oXunLrGHcmnvvJbIDo/4VpUVQwndCooTby5a51FLcfaZoX6HIrf9+oXk3x0GjfBB+aLl4WxZhQVDCdthcVj0x7ueLLXV5nfNz+qLxDWVHxz+GeXi46Q9CVDxyYAIoKprNQsW0bj8hyvyzPgZlt1v44eL6Hf45tFBeYvRTPhI9ZDKvtKCqYFkUF02njYli+9OTeUx9WJnF2Mhsvm+x5Lu4a4PXcPQnRP7PX0++TcTW/RAdRVNB2bgviRotuBumb5FcpXeBmmt9V/DO7zb3nAHjS4RDvwWBAKCqYTqphuXV5iLCX6HWr9VcqMe3aJ82X7DyTfTfFBebJyp7KEcrflK6Z9GsDLUZRwXQmddP5d4rnhHhuyC6Khwv3jZcF8Hr77ou2nPIsxS3vfW+mC0VmKAMSUANFBdMZ5xuHC8dHFN98X1vxnJDYte27wpf3LlDcFsajyFxkfN/I7em99IAbRfpeTZv0eRACEqH3F+bny06h5ztFPFPdl7Y8HJiOt+V4ZJnXVXmf4stmPqPzpMzQ77fpuKMz+iem99epSuZhxdZFpW5xWF85J99FjzxV8VyMGG5IeVkRr2vyB8VLDHflZnsXLK24xb1n+3s72l9J8cJk/u+pr0h8SnFxQ7+4qNQdpu+Gki/Md3OcqWB+j1NCz3eZeOST28iPPrRgslxcfEb4XMVr5L9O8ZtA6LkrE69Gif5JcqbCPRVMp+z68iFejdCXuPxiw+R5GLPPOr3o2mg9FZ851nVbsQUegqKC6dyp1L1Z74mTdZa5xfjEdBqmqGBaFBXMxDeC62LNjXbzvZa6Ys5i0XMUFcwk5s3D1/HRXjFFn6KCaVFUMJNbi20dHgKL9qq6fv9UXP7CtCgqmMl1xbYOjx5DOy2suF1MXX8ttsBDUFQwk5jlczlTaS/PYak73NvdoTlTwbQoKphJTFFx7y60U8xZJOv0Y0YUFcwk5vKXZ+SjnTzrvi6KCmZEUcFMvGRvXRSV9nLjzrpiXhMYAIoKZhIz69pDVmNuBqM5qxXbOty2H5gWRQUzuV6JmZPgFu5on5gzlT6ub4OEKCqYTcybyFrFFu3xKCXmngpFBSFz+/xRVDAbikq/eBG0BfLdyrygmJcxAKZFUcFsLim2daxTbNEeLip1Xal4jRxgWhQVzMYrDNbla/eL57toiXWLbR0XF1tgWhQVzOZcpe66KL7M4oWh0B7PLrZ1sMIrZkVRwWzckuOKfLeWDYstJu+xylPy3Vp+U2yBaVFUUEbMJ9SNii0m7z+KbR0+Wz0v3wWmR1FBGTFFZQPl0fkuJmyTYlvH5QqNJDErigrK+EWxrWMhZbN8FxPkrsQxz4PXtwdmRVFBGRcot+S7tby42GJyPJTYLe/rOqXYAjOiqKAMT3o7Pd+t5SVK3Ql3SGOrYlvXqcUWmBFFBWXFvKksr2yc72JCti62dbirQswyCBgQigrKOrnY1rV9scX4eRmCmJY5nKWgNIoKynLPp5iWLa9QfNMe47dzsa3rx8UWmBVFBVUcW2zrWFqJuQSDejzqa8d8t5Y7FW7SozSKCqqIKSq2R7HF+PheVkyr+x8pNJFEaRQVVOFJkDFrlHuexCr5LsbkTcW2rqOLLVAKRQVVuFXHEfluLb4Uw9nK+Hheyjb5bi3/VE7Kd4FyKCqo6qBiW9deyhL5Lhq2t7JgvluLL3f6ngpQGkUFVXlNjZg1VhZTOFtp3qJK7O/54GILlEZRQR3fLrZ17aM8Mt9FQ96iLJPv1nKNwqgvVEZRQR3fU2JGBHldj9gbyJiezwbfme/Wdqji9jxAJRQV1OHmkt/Pd2vbV2Gp4Wb4TNDzgup6QPlWvgtUQ1FBXQcU27r8pvef+S4SWkF5T75b2zHKlfkuUA1FBXW5Hf5p+W5t71Lclwrp/Jfim/Qx9iu2QGUUFcTYv9jW9Qjlv/NdJLCesku+W9tZyq/zXaA0z2HLUFQQ4wTl/Hy3ti0VN5tEnIcrvg8S+2/6c8UWqIWighj+dPLRfDfK1xWvuYL63qeske/WdpES298NA0dRQazjlN/mu7V5PsVX813U8EzlvfluFBcmhhEjCkUFsXy28uF8N4ovgb0+30UFvin/A8WXv2L4XsqJ+S5QH0UFKfjNKMXqgF9SnpXvoiSf4a2a70Z5f7EFolBUkMrblPvz3drcuuVIhYaT5eypxK7qaEcpLBmMJCgqSMU3eX3DPdaTFU++83BjTO8Fyhfz3Shub+/5QkASFBWk9CHFLVxi+Q3TBcrrr+ChVldceGPvo9gnlavyXSAeRQUp3aq8Nd+Ntqvi2eGYl5cG9sJZKS4R/lH5fL4LpEFRQWpuNOlr9Cm46eRn812IV3L8ufK47CiOhw7vrtybHQGJna14aGiduDUEMNVjFF8GC71e6iTFBMuucyHxmUXo91Mnn1KAqV6mhF4rZeIPO/OgqCC17ZTQ66VuvqIsoAzR0xUvmhX6vdTJhQoDITC/JEWFy19oyg+Vr+W7SbxROUIZ2oqRz1fOUHzpK4V/KDspXPZCozhTQRP8afhcJfS6qRuvj7+KMgReY95v/qHfQ928VgFCuPyFTvC8k9uV0Gunbvz1Xq701cLKQUrosceE/mqYCUUFnfEi5T4l9PqpG49ecluX2AWp2mYD5Q9K6DHHxGukpJjXgv6iqKBT3Cwy9PqJjZe93ULpOp+dfFpxq5vQ44zJFQpLC2A2FBV0zmeU0GsoRQ5VVlS6aBsl5XDhqblJeYoCzIaigs7xaMPvKKHXUYp4ZJML15JKF/jfzi+V0GNJkbsVX04DyqCooJM81+RwJfRaShW3i/EaL2295LOxcrzi+0Khnz9FXGA3V4CyKCrorAUVt7gPvZ5S5h7l28rayqR5fs2OSuoh1qH4DGVTBaiCooJOW0jxBMnQa6qJuDW/uyg/TRkXn5X5bOEQ5e9K6OdKnbuUFypAVRQVdJ7vsXhNkNDrqslcrPj7vlJZVklpNeXNytGKL8OFvn9Tcb81z8AH6khSVEbrVbio1C0O6yvn5LtALe9R3OBwEuun+B+Eh9xeUuRS5S+K36D/VmxHLU18duV5MW4776aZLkhu9LiG8owij1YmwY9hS+Wy7AiozkXl2Hy3slOUeS65cqaCSfP9Bq9CGHqNkZlzppL6jAvDE3OmcrKSoaEk2uK7ynn5Lipyg8ib811gsigqQPd5aDLQChQVAEAyFBUAQDIUFQBAMhQVAEAyFBUAQDIUFQBAMhQVAEAyFBX0xR6Klxf2+vVdcr7yJuX67AjoOIoK+uL3ylsVr/7oGeYnKP9S2ug6ZX/FLY7WUr6qtPVnBSqhqKBvvDiVW75srbjp4y6KFwVzx+BJulDxqpQbKo9X3q54bRWgVygq6LPblMOU1yjLKT4z8Jv5Uco1SlN81vE75cuKv7fPnp6p7Kv8SqGtCnqL1vdoE7/hPi/frcx/z916q/Ba9msqXgPlScrKykrK0oq7/rrFfYhb4bstvnOTclWRyxVfhnP7/PuUKvz3n5DvVuaf238fiBHT+t7rqWyW7+ZofY82cFEJvcbK5LlKE7z0sYuPs5j/oCEuCqHHVSZPVIBYtL4HxuB+xZfRnDv9BwCmx+UvNMmvrxUUX57xPY3RZSWvjriI8nDFfOwPOJsoy/gPaqhz+atNYi5//Vi5W3HRcxE0F0Eveja6THej4vtIVyujlSyBqbj8hVZZRXmV8jHlGMX3Fe5RQq+ZJtLU5a9xibn8VSUeJHCtcqpygLK74n/DowKP4Upy+WuEooIqfAayjvIuxQXEn4JDr41xhqISF5/VnKF8WvFa949SMCwUFYyVL1dtpxyi3KCEXguTDEUlbVxkfqp4CHbdy3LoFooKGvcI5ZXKDxVfsw89/22J/0F0lQu215gPPa42xJfMfq24wDxWQT9RVNCYVRVfBvEcjNBz3sb4JvWmStd4LkzMUOpx5wHFbyDbKh5ujf6gqCAp3yd5qeIbuKHnuQtxixY/hq5wG5kLlNBj6UL+orxTWVxB91FUkIQ/be6mXKKEnt+uxS1SdlTazhMW/6SEHkPXcofyOWV5Bd1FUUEUzwvxJYzLlNDz2uX4HsDblLZyWxjPGQn97F2O77t5mDLFpZtiisrPlHlQVIZlC8U9qkLPZ5/yAaVt/O/lFiX08/Ylf1feqyysoDsoKqjMN+BPVELPY1/zBWXUOWLS3DHAb7ihn7OP+bPi0YPoBooKSltIeY8yzhnubYrb3096pJIHEHggQejn63vcRoa5Lu1HUUEpz1YuVkLP3ZDiNVQ872YSdlbcCj/0cw0lHvK9j0IT2/ZKUlR4gvvLn8x9dnK68nT/wcC9QjlJabJ9fcgblW8rQ5/TsajiJZTdePBx/gP0E0Wln9zc8X8VT2D0pS/kXqB46ONS2VHzPqR8ReHf2YN8X8lzczzyED1E6/v+8SnsoUrbJ6SdpxyY72bzHEJL7Hr0kNd1d/v8lHw5cHPl+uwoPf+72k9JPazZlxk+rvjnD/FZmM+I1lDe7D9ouS8pnjxZdZVMNMPvHXVb3/vDmv9NzcU9le7zG5kvd7mNRuh5alt8jd3rqMymqUmCVyo+o0ttAeWbSuh7xsTrpHiSahnfUUJfo41xixr6ibUDN+oxl69XH6+Enp82xw0Ky/CbzkVK6GvE5K/KM5RUPBDgaCX0vWLijsHbKGX4rM6LcIW+Tlvj9V2epWCyKCrI+A3Xl5JCz01T8fwDL8blG6+h/142Vyhl7zf4PshZSujrxMSrIm6gxHJh9yWA0PeIic/oXqiU9VEl9HXKxourvU45TRnnWa8fp9dxweRQVJBNZnRTv9Dzkjp3Kb6ss5Eyuhfn5YFj515srZTlN26PHgp9nZjEdjhuquB55r3vWZblM6XYtW48Wm3Ec0vcleByJfT/po7vrbxewWRQVAZudeU6JfScpIzb339EcQEJ+YYS+ntlc4pShZe9PUIJfa2Y+JKRl0Ouyp2Gz1dCXzMmHkSwplLFa5XQ1yobr2vvwj0/n01upZyphP5eynjARtnLokiLojJg6yq+bBN6PlLFZ0B7KY9UZuKRRqG/XyX+GlX4ZvjBSuhrxcQ3w33pp6wnKb6EF/paMfGZwcpKVb9VQl+vbD6vzMbDsv0GEvr7KfM+BeNFURkovwE32ZDQl7l8ZjJbMZnKZxuhr1U2Ptupypfg/CYY+nox8Sdlr70/m6Y6DbvR54pKVb4sGfp6ZeOCWqWQ+XJhE2doU+PRjBgfisoAPU25UQk9D7Hxm4on6i2rVOX7IqGvWTa+LzPd5bXZfFAJfc3YeD7IdHxjv4kzRS/ZW3di5pFK6GuWjUetVeUzxjcosfdxposL/N4KxoOiMjBubeGhl6HnIDb+dFzlhvD8fM099mauW6XX5Yl+TYxU+rIy/+i0/1B8Yz/0/8fEI8dC9zPK8A11fygIfd2y2Vipy4XQTTtDXzc2fl5fo6B5FJUB8UzpJi41+B+sF1VKse6FZ4+HvkfZeNBBTEuZHRSv+hj62jH5rjL6uXyz2nNGQv9fTI5TYp4Dr7oY+rpl8zslBQ8JbuKDjwdRVBlWjXooKgPhNzQ/YaHffUyuUtzBOBXPjo9dK+TVSgxfhmviTf8EZQ+liU7DBym+jFTXIsqtSuhrl02VwQmz8VnLMUro+8TElxt9+RfNoagMxBeV0O89JqcqyympuZdT6PuVjZtgxvJlHPcSC339tsW/r9hmk77nEPraZeMh46lXaPQgCre5T33m6KWvy7T2QT0UlQHwJZ3Q77xufOPTnYtjPhnP5ClK7L2NmHs7I+sofrMMff22xM9DLL95/0EJff2ycWeEprjAe75N6PvWjdsRxRZihFFUeu6Zyt1K6HdeJ171cTulaT9SQt+/bHzDN4WmhvzGxkU3VQfhLZTQ9ygb36toupmjBxG49Uvo+9fN+xWkR1HpMV+OuFAJ/b7rxHNP/AY0Dm5/HfoZysaXTOrM0wjxG9ofldD3mUSqTq6cjZfpDX2fsnE343HwfRYPlw79DHXie1vPVZAWRaXHPF8k9LuuE9/gfI4yTrEF0U0RU1le8eim0PcZZ3ym6NUnU2nLpcayPKDAK2+Gfo46cVPTtq8Z1DUUlZ56ieJ7H6HfddXcrExiKWG3dwn9PGXjyXQp15NfQvG6HaHvNY54VJzbm6QUOyjCfbzGzc9pysJyiIJ0KCo95E9eVyuh33PVeASUe4RNwqOU2Bnnuyop+Wf6iRL6Xk3Gv4eUQ7fNr5PYEW7juL8W4ufhdCX0M9WJ5w4hjZii8lNlHhSVdviaEvodV43bnqT+ZFxV7IQ8N0dMzR2Of6CEvl8T8SJgVZtlluEleEPfr2w8QTFmomksDwtOtQaQG596cjDiJSkqDM1rj+crnmAXy5fOtld+kR1Njluc+Jp/XWsp/p2k5P5inrk/Lp5g6ktvKXk4+Jvy3dp8z26S68L7LOvFipd0jvV4ZaY+bZgQzlQmy8X9HCX0+62aNrUMP0oJ/Yxl43VTUvAbj9vRxC4oVje+n+PLNKPFzWK8XAl9j7KJad6ZmteL8cjE0M9ZJS6QTZwRDg2Xv3pkdyX0u60at8dI8caVyrjbsc/Pf9fFxCOvQl9/3HH/tl2UmCsEPgMNfe2yOVBpE4+ISzEwxSuCIk7SovIbJfQ/lsmkbgb3hTvTpmgdfrFSt8ttk2KH835GqcqfWr+nxHbubSoecu1LlFU7G3hCbOjrVUkbP9G7u0DoZ60aj5xEfUlHf8WMivEEM9TnNcBDv9cq8Sfxtp7+xy5x62aJnuNQht90D1Vi52+MK55r4R5ZZYdPu/lk6OuUTVs/zfvM7Qwl9DNXiYs194nrS3qmsp8S+h9ni2+4TXIUSdd5FEyKxZ7erbSV3zBjz8T2VGbiG/ruJJxqfs+44xFMLi4zrbbpxdNiOzC3efjtk5UU69Rsq6CepGcqGyqh/3G2eK0J1OdmfqHfa5X4E15TDSJTiX2cvrQXulfk1jMp5zxMOh6C/A4ldGbmflehv1M2XkSt7Z/i36qEfvYq8YJznK3Uk7SomNuhh/7n6eIRF6srqMf3P2LXwXDDSX/Cazs3LXTzwtBjKJvNFHNx8Ys/ZnBJ2+NOCC4iozbvvhoQu/iVF1FrOxeD2IEIzjYKqkteVHxvpMr65/5EhfreooR+r1XyYaUrfFYbegxl4+7HXlY2ZaPNtud25ROKuxqH/nvZuE1MV/pkPUOJXQzNQ7hRXdJ7KiN+Qq9QQn9pFI+o8Yxe1OfLVbP9nmeL27m45UVXuHlh6HGQ5uOF3rokRUPVcTdR7YPkZyojvp7rU29fg536lzxJyS0uXHgQxzdMp/5u68Sf2rsmZfvzccb3dI5U2jpEeaZ4JJw7GneJJ2fGXhoeV1v/PmmsqEzla+FeRc9rQ7tvEtLw6nWhJ6Zs/ObcpkmOZXluRujxtDXnKp7BPrrx+1TFw3pTL5PbZDwqroveroQeT9l4pJzXcUF5jVz+QvNWUmI/8W6pdNGCShtXY5w/s7VVmXTblyrZVOkiX9qtco83FI8mQ3kUlY5yb67Qk1I2nqHexbOUkdihsU3Gp/BeV72sFZQvKCn6VzWR6YZid0WKfysoj6LSUbGjlya1DkYqyyht+4R/shKz5okf00eU2PsAqZOi6/UkecTabUrosZXNagrKoah0kO9NhZ6QsvmT0vaJjmV8Swk9vnHGN7A98MStXVLxvBK33fE8k9D3HGfcqaFLowOnE9sX7EMKyqGodJBf4KEnpGz2VfogRWPEuvFN9m8rqypN8QhKD7v3DPnQzzCO+M24Dzy5N6b9zkUKyqGodFDMLHDf3PdN/r44TQk9zqbiGf1uNjnO4bUeMelW9z7DDP1MTcWTBx+n9EXsLPsnKZgdRaVjfN09pnvuiUqfuJVG6HGmjm+ie6TWJAuy26y4uFyihH7G1PFlvT7x7y70OMtmLwWzo6h0zI5K6Mkom1cpfeJ7Q279HnqsKeIO2p9U3N23LfyYx9FqJvUyzJPme0N+PkOPtUyOUzA7ikrHxKyF4dFSM7VF7yrfdwg93pjconxQSb02fEoe5usztVRLSE+NJ2z20feV0OMtExekPgxwaRpFpWNirqt3dVb0bDxkNOYT6NR4opyH9Y46+3aFzyq8eFboMdXJTkof7ayEHm/ZrKVgZhSVDllOiRnBsrfSV59SQo+5bK5S3qQsrHSZ1/P3P8zQYyyby5S+tlPyPcmYThTuCo6ZUVQ6JPamtNuC9JXPVuqcxfkNdDelbyuPupuz7wFU/RDiN9zNlT6LaUjqy2eYWUxROUnBGPmyTOiJKBOPGOo7N2r0krqhxz9/PO/AN7v7fo18TeVwpcyIQQ8hfoPSdzEriA7h31EsikqHHK2Enogy8dyKIfDlDU9KnG6Bpt8oPuPrci+rOjxJ07+Xe5TQ78U35vs22ms6L1VCv4My8ZlcHwe7pJSkqAztH+ikeG2ausv+utPql/LdQfCkPa8975Y2bjnveybuzTX0T5oezebOyT6r82CE65RfKi62/kc9BMsrN+S7tayrnJfvIsBF5dh8tzLfU3lRvoum+dNRzE16VrADHlT2MmkoHkGG6SU5UxktPoTmeO3/umeEPmU/P98FIJ7bU9fKxRYNoqg074nFtg5f+vEKdgBylxbbOmL+LaKk2YqKh2uuqCyaHaGOmBeyT/UBPCjm3wRnKs2ZezUmVFQ8VNPj/72kqkecXKvcqVyt7K+4yKA8rw5Yl89UADwopqjE/FtESfMXFY+88WgSL6L0PGXqf/d/20fxpDM3R0Q5SxfbOjhTAeYV80Er5t8iSppaNNxK5HRlnexoeu4YepjCSIpyYl7I1xRbADlfMalrSWW2S/6INPUXfKBS9vq/r59V+f+HbKliW4cvOwJ4kC/Je4JsHb6037WGo50zKio+O/EY5SrcwO99+S5mEDOL9+5iC+BBXgqiLmbVN2xUVLYttlW9QmGdgpnFdI2N+ccD9FXMh62+dnGeNE+AzIyKipvX1eH7BYwGmxlFBUgr5t/FI4otGjIqKjE3k9u0XGsbxbRm9/VjAPOKmRDMmUrDRkUlprHk6GsAwDjMvdRSA010G0ZBAAAkQ1EBACRDUQEAJENRQazVlJ0ULybmrReRQjd44S/PT3uzsruyidK3Nf8xIWcrUxdcqZL1FEzPa6qHfm9l8gylrV6seK2X0M/tJW43VdBOKymHKP9S5n/ublXer3hyc1tdoMz/c5dN3ekTQ5Bkka4Rikpz+lhUPqmEft6p8WqXH1TQLl5J9CYl9JxNzVlKW6cLUFSawcqPmIh3KmXa83jo5seUvbIjtMGTlROVMsViA+UYhXkdqISigiq8NLLPUqrYT/HlFkzel5QqDU69/MXe+S5QDkUFVfiGbtU2F27g94Z8FxO0uuL7YFX5zJQJgyiNooIqtiy2VdX9e0inTkExL863Rr4LTMv3VTIUFVRRd43vJxVbTE7Mc8Da7iiNooKyFlTqrkWxeLHF5CxabOtgYSuURlEBACRDUQEAJENRAQAkQ1EBACRDUQEAJENRAQAkQ1EBACRDUQEAJENRAQAkQ1EBACRDUQEAJENRAQAkQ1EBACRDUQEAJENRabeLFC9+04bcp9TltvmhrznO3K/8VfG6669SxrmaodeE/7ByjnKHEvr5ms4uSl2HKKGvOamsqaClKCoYigWUFZRtlCOUM5VxrJ2/k3K58hFlXYW1ZdBrFBUM1bOVs5QVs6NmvFE5TKGQYDAoKhgyF5Tv5bvJraUckO8Cw0FRwdBtpGyZ7yb1ccX3koBBoagAc+a8ptimspSyRb4LDAtFBchvoKf0LIWzFAwSRaV5DxRbtNcyxTaVJYst2od/jw2jqDTvpmKL9rq52Kbyt2KL9rm+2CItzx/KUFSad26xRXt5UmJK5ysxk0XRjKuUW/NdNIWi0rzDlblVHK30/WKbyu3KSfkuWuS7xRYNoqg070KFF3N7naY0UQA+qHC20h6+xPmFfBdNoqiMh2dWu48X2uVqZcd8N7kLlDcrnKVO3r2K+73dlh2hURSV8bhT8SS747MjtMEZynOUJm/cHqjsoPhyGCbjL8oLlNOzIzSOojI+fmN5mbKp4n5QvmnoT1AYD1+KulY5UnFTyY0Vdy1umu+praJ8QDlb4UZxs3xmeINyquIrBE9T3OMNY+YXu5+MOllPAQB0mz/0ht7jy+THSoYzFQBAMhQVAEAyFBUAQDIUFQBAMhQVAEAyFBUAQDIUFQBAMhQVAEAyFBUAQDIUFQBAMhQVAEAyFBUAQDIUFQBAMhQVAEAyFBUAQDIUFQBAMhQVAEAyFBUAQCyv/pihqAAAkqGoAACSoagAAJKhqAAAkqGoAACSoagAAJKhqAAAkqGoAACSoagAAJKhqAAAkhlyUXm+8i3lD8qtytXK8cquykJKkzZQvqFM/d4/Vl6vPFwBgE47W3HvljpZT+mSxZQjlNBjGeWPyjOV1BZRvquEvucof1K69jsF0H0vU0LvSWXyI2UeQykqflM/Vwk9jvlzt/IiJZVlld8qoe81f/y9N1QAYFySFJWhXf76qrJOvjurRynHKa/IjuKsqPxSWSs7mp2/9w+UpbIjAOiIIRWVNZSd893SfH/Db+5V/95UKytnKKtlR+WtoLw93wWAbhhSUdlReVi+W8mCyiHKPtlRNU9TTldcWOqIKWYAMHZDKirPLrZ1uBjtr7wnOypnbcUFZaXsqJ4nKI/JdwGg/YZUVJYstjE+rXwi353Rc5VTFN+cj8V9FQCdMaSicnuxjfV+xTf8p/vdvUA5SVkiO4r3t2ILAK03pKLi4byp7K18U1kgO3qQh+S5oHguTArXKTfluwDQfkMqKt8vtqm8TvHXHM2A30E5UnlEdpSGR555DDgAdMpQJj8erYQeQ0xOVN6iPDDlz1LkNiXFPRkAKIPJjzXsrrgFS0ovUb6opPxdukDtotycHQFARwytqLh54ybK77OjdvqX8hrlhOwIADpkNBnQl7/qXsZaXzkn3+2M5ZSfKs/KjtrjXmV75djsqD8eqayi+PdeZwIq0Hb3KTcobgj7b/9BB/nyV933Hl/+emm+mxtSl+IRD/k9Uwk9pknkLmVTpU9WVw5X3CAz9JgJ6VtuVD6nLK10Tcw9Fd9bzgzt8tdUnreymXJydjRZo5/l59lRP+ypnK+8WnGDTGAIfDb+LsWX2D0JenCGXFTMn6C3UiZ5ucmfbDxh8tfZUT94kMHXlKYXOwPaannFl9jdyHZQhl5UzPcxtlUOy47Gyys+bqRckB31w2OV/8l3gUFbVPmOMqj3WYpK7n7Fkxk9S35crlQ8Eu2y7Kg/3qlwuQvIral42sFgUFQe5Lkheyj7ZUfNukTxGvl/zo76ZZtiCyA3qH8TFJV5eRSDP2nvmx014zzFl7z+mh31i1vW1F07Bugrr6s0GBSVsCMUT5RswkHKLflu73g+CvNQgHktUmwHgaLyUP5U4fXkm1rH5MvK2/Ld3rlD8Yg6AA9yt/HBoKjMay0ldrXG2fiT/H8rH86O+ucXxRZA7tRiOwgUlQe53YwnH46rM/BHFK8k2TffKLYA5sz5h/K9fHcYKCo5Tz50QRn30r1e836mVSS76DjFk74AzJnzceX6fHcYKCp5E7SfKKlWa6zKq0geqiyYHfWDuyy7RQswZIcon8l3h2PoRcVvfl64a+HsaHJ2VFKvGjlJXmDM83DcqsUTS4EhcS8/D8bxhGpPUxiUoba+N090dDuRNhVWnzG9UvlndtQPT1T8mJ6puB8SZ8foI6+D5MtcZyi+BOzC0jW0vo/wZsVrHoQez6Tj4cyLKwAwTrS+r+kDypeUtk7S82z7nyluRgcAnTK0orKT4tEYKflS1aX5bjIbKN/PdwGgO4ZUVB6teNJhSncqL1a8GM9Z/oOEfH3yFfkuAHTDkIrKDsoy+W4SHuG0ueJ7IN73UsCpV5F8S7EFgE4YUlFxAUjlBmVjZerZiXteba2ckB2lsaHiJo0A0AlDKipPKLaxRqs1XpQdzesexcNnD8+O4i2gPD7fBYD2G1JR8SJcsUarNf4pOwq7T/GAgFSrSHr8OwB0wpCKyuXFti6fmfiGfJnVGkerSO6fHdXnM59B9Q0C0G1DKiqerV6XJ4e66aTvpZTlCUFvVz6WHdXjltkuLADQZn6/m8cQZtS7r5bvh4Qew0zx+iCxzSbfpdSZwe9LbQAwDjEz6ucOUBrSmcq9yq5KlQaHPrvxPBTPR4nxeWUvxYWlLDdjPC3fBYBuGVLvr+0Vz4IPPZapOVh5uJLSdspdSuj7Tc1hSl86FgPohiRnKiNDayj5DMUN0HxDff7H45Yrr1aaspriTqCh7+1RZZ6k2da+ZAD6K0lRGXLre1tO8Ygut2T35MULlND8kyb4ez+v2Prsxd/3QgUAJiGm9b0/pG+V7+aGdqYCAJgXN+oBAO1CUQEAJENRAQAkQ1EBACRDUQEAJENRAQAkQ1EBACRDUQEAJENRAQAkQ1EBACRDUQEAJENRAQAkQ1EBACRDUQEAJENRAQAkQ1EBACRDUQEAJENRAQAkQ1EBAMTyksIZigoAIBmKCgAgGYoKACAZigoAIBmKCgAgmSEXlUWUVysHKD9Qvqm8WXm80rRHKtsq/t6HK/7eb1eeqABA552teEhYnayndM0blJuU0OP5l/I1xUWnCbsq1yuh732/4gKzhAIA4/QyJfS+VCbHK/MYUlH5shJ6HPPnImUlJRWfFX5JCX2v+XOx8lgFAMaFolLD25TQY5guf1aerMRaUDlMCX2P6fIrxX8PAMaBolLR0sqdSugxzBRfqlpDqevhypFK6GvPltcpADAOSYrKkG7U+w160Xy3kscopyrrZEfV+L7Micors6Pq3lhsAaAThlRUNim2dSyjnKI8Pzsq59HKScpm2VE9ayv+OgDQCUMqKisW27r85v5TZYvsaGZLKv5/qxShED8/PlMCgE4YUlG5t9jGeJTia4czXc5yEfilskF2FC/Fzw0AYzGkonJpsY3lG++esLhTdjSvlRWP2oq5sT/VXcq1+S4AtN+QispxxTYFD/U9RNkrO8o9TTldSTEEeeTHiidEAkAnDK2oeEJjKv7dfVV5t/J0xSPEUk6W/Lfy2XwXALphSEXlAcXDiu/OjtJ4mOI3/nOUFfwHCX1cOS/fBYBuGFJRMb9J+yb7P7OjdNwgMiX3HvtovgsA3TG0omKjYcF/z47ax/3BPOnRs1QBoFOGWFTsDOWFyi3ZUXt8Rnmr0peC4gENOysehn2N4uHRU1s7ENKX+LL6ZcrByguUwRta6/uR1ZTrlNDjGmd8U/4dSp+srrjbcujxEtL3HKN0rRsGvb8SuETxrHd3I54UDyDYQ9kvO+oHz9M5U/GoOGCItlE8CXqx7GhAhl5U7ErFfcF86jpunoOym+KFufriEUoXP6UBqT1T8bSDQaGo5K5WNlIuyI7Gw/cXtlMOzY76w2ddKSeAAl22o+LiMhgUlQfdqPgG26+zo2b5pt5Wij/R943/EQHIeS7b9vlur/m+SoaiMq/bFbeq/3l21Ax/j82Vk7OjfvHrqc66M0CfrV9sB4Gi8lA+i9hWuTU7Sm9vxTex+8j3UVgCGZjXssV2ECgqD+X29u5CvFR2lJ5v3KVqi982dyg0wATmdXOxHQSKyrz8SftnSpmFuOryAl6+vObJl33j+Tbn57sACr8ttoNAUXmQz0zcwuV52VGzvFb+CUqTxWtSfJYHIOcb2D/Id4eBopLzao2/UMZ5WarMKpJd9D+Kh2gDmDPnSOXcfHcYKCpz5jxBcS+wVKs1VuFVJP0p5rXZUT/8Q3GhTLnEANBFf1T2zHeHY+hFxas1evnfVbKjyVhAOUjZJzvqB38y21CZZPsbYJI8ZcAtoG7LjgZkyEVlLcXL/6ZcrbEuT5DaX/lQdtQPv1PcsNNt/E9TBvePC4PieyfXK77c5YnNnovWti7oYzW0LsX+mf2Ehx7PpPNpBQDGLaZLsZdrzwzxTMVDef3JeensqH3eo/isBQA6Z2hF5VnKscoi2VE6/yq2qfj+ygfyXQDojiEVFT9W3xBPvb6BV2t8rpL6+qnXqF873wWAbhhSUdla8c35VHwd0WcU+yrnKV6TxTfqUvFz8+58FwC6YUhF5eXFNgWv1ri78sXsKOelc70my1+yozReqtCgEUBnDKmorFpsY92n7KD4Utr8Lleeo/w+O4rndi4r5rsA0H5DKipe5jbWaLXGH2ZHYb4E5hFmqVaRTPFzA8BYDKmoxN7vuFN5keLRY7O5SfE9lt9kR/W566+/FgB0wpCKiuem1OXZ4F4R0k0ny6rzd+bnNvJeKRIAOmFIReVg5a58t5KYs44qZzchXtALADpjSEXF80g896OKaxSP6Iq5P+L7MK9WZroPE+Iidmi+CwDdMpTeX27c+HUl9DjmzyWK2+Kn4m7EByqh7zV/LlXa0OgSwHAk6f01MrSGku6cO11DSa+x/i0l9cz7kdcrvqQW+t6e//JtxUsOA8A4JSkq/uRuLip1i8P6yjn5bqcsrnhyodc88MqPvv9xoXKM0vQ6IJ5/4vbYvrS2vOLvfZHiey+e6wIA4+aiUvf+r1ex9d+fa2hnKgCAecWcqcwtRkO6UQ8AaBhFBQCQDEUFAJAMRQUAkAxFBQCQDEUFAJAMRQUAkAxFBQCQDEUFAJAMRQUAkAxFBQCQDEUFAJAMRQUAkAxFBQCQDEUFAJAMRQUAkAxFBQCQDEUFAJAMRQUAkAxFBQCQDEUFAJAMRQUAkAxFBQCQDEUFAJAMRQUAEOv/ii1FBQCQDkUFAJAMRQUAkAxFBQCQDEUFAJAMRQUAkAxFBQCQDEUFAJAMRQUAkAxFBQCQDEUFAJAMRQUAkAxFBQCQDEUFAJAMRQUAkAxFBQCQzMOK7dnKevkuAACVHKu83DucqQAAkqGoAACSoagAAJKhqAAAkqGoAACSoagAAJIZFZUHii0AAFXNrSGjonJTsQUAoKobiu3conJesQUAoKpzi+3cGfWrKr9XFsiOAAAo5y7licrffDA6U/mjcnC+CwBAaZ9VsoJiozMVW0T5pbJOdgQAwMx+omylPORGvd2tbKIclR0BABD2b+VryjbKPKOHp56pTLWxspuykbKC8ggFADBc9yjXKKcqX1d+p8xnzpz/D+u5V0TqiksUAAAAAElFTkSuQmCC;" vertex="1" parent="1">
          <mxGeometry x="51.25" y="30.73" width="120.19" height="151.95" as="geometry" />
        </mxCell>
        <mxCell id="z_qD1HKAoeuYG7XRLIYZ-133" style="edgeStyle=orthogonalEdgeStyle;rounded=0;orthogonalLoop=1;jettySize=auto;html=1;exitX=1;exitY=0.5;exitDx=0;exitDy=0;strokeWidth=2;entryX=0.5;entryY=1;entryDx=0;entryDy=0;" edge="1" parent="1" source="z_qD1HKAoeuYG7XRLIYZ-134" target="z_qD1HKAoeuYG7XRLIYZ-143">
          <mxGeometry relative="1" as="geometry">
            <mxPoint x="578.2800366210937" y="710.6800000000001" as="targetPoint" />
          </mxGeometry>
        </mxCell>
        <mxCell id="z_qD1HKAoeuYG7XRLIYZ-134" value="" style="rounded=0;whiteSpace=wrap;html=1;strokeWidth=2;" vertex="1" parent="1">
          <mxGeometry x="374.17999999999995" y="668.1800000000001" width="180" height="84" as="geometry" />
        </mxCell>
        <mxCell id="z_qD1HKAoeuYG7XRLIYZ-135" style="edgeStyle=orthogonalEdgeStyle;rounded=0;orthogonalLoop=1;jettySize=auto;html=1;exitX=1;exitY=0.5;exitDx=0;exitDy=0;strokeWidth=2;entryX=0;entryY=0.5;entryDx=0;entryDy=0;" edge="1" parent="1" source="z_qD1HKAoeuYG7XRLIYZ-136" target="z_qD1HKAoeuYG7XRLIYZ-134">
          <mxGeometry relative="1" as="geometry">
            <mxPoint x="367.7299877929687" y="710.6800000000001" as="targetPoint" />
          </mxGeometry>
        </mxCell>
        <mxCell id="z_qD1HKAoeuYG7XRLIYZ-136" value="" style="rounded=0;whiteSpace=wrap;html=1;shadow=0;glass=0;sketch=0;fillStyle=auto;strokeColor=#000000;strokeWidth=2;fontFamily=Times New Roman;fontSize=20;fillColor=#FFFFFF;gradientColor=none;" vertex="1" parent="1">
          <mxGeometry x="212.15000000000003" y="625.6800000000001" width="129.78" height="169" as="geometry" />
        </mxCell>
        <mxCell id="z_qD1HKAoeuYG7XRLIYZ-137" style="edgeStyle=orthogonalEdgeStyle;orthogonalLoop=1;jettySize=auto;html=1;strokeWidth=2;fontFamily=Times New Roman;fontSize=20;rounded=0;" edge="1" parent="1">
          <mxGeometry relative="1" as="geometry">
            <mxPoint x="212.15" y="706.95" as="targetPoint" />
            <mxPoint x="170.15" y="706.95" as="sourcePoint" />
          </mxGeometry>
        </mxCell>
        <mxCell id="z_qD1HKAoeuYG7XRLIYZ-138" value="" style="whiteSpace=wrap;html=1;aspect=fixed;fillColor=#FFFF00;shadow=0;strokeColor=#000000;rounded=0;sketch=0;glass=0;strokeWidth=2;fillStyle=auto;perimeterSpacing=0;fontSize=20;" vertex="1" parent="1">
          <mxGeometry x="229.13" y="684.6800000000001" width="91.8" height="91.8" as="geometry" />
        </mxCell>
        <mxCell id="z_qD1HKAoeuYG7XRLIYZ-139" value="" style="whiteSpace=wrap;html=1;aspect=fixed;rounded=0;shadow=0;glass=0;sketch=0;fillStyle=auto;strokeColor=#000000;strokeWidth=0;fillColor=#0000FF;fontSize=20;" vertex="1" parent="1">
          <mxGeometry x="238.92999999999998" y="697.6800000000001" width="23" height="23" as="geometry" />
        </mxCell>
        <mxCell id="z_qD1HKAoeuYG7XRLIYZ-140" value="Input Layer" style="text;html=1;strokeColor=none;fillColor=none;align=center;verticalAlign=middle;whiteSpace=wrap;rounded=0;shadow=0;glass=0;sketch=0;fillStyle=auto;strokeWidth=1;fontFamily=Times New Roman;fontSize=20;" vertex="1" parent="1">
          <mxGeometry x="226.65000000000003" y="638.6800000000001" width="104" height="30" as="geometry" />
        </mxCell>
        <mxCell id="z_qD1HKAoeuYG7XRLIYZ-141" value="Patient Scores" style="text;html=1;strokeColor=none;fillColor=none;align=center;verticalAlign=middle;whiteSpace=wrap;rounded=0;shadow=0;glass=0;sketch=0;fillStyle=auto;strokeWidth=1;fontFamily=Times New Roman;fontSize=21;fontStyle=1" vertex="1" parent="1">
          <mxGeometry x="26.999999999999993" y="780.0000000000001" width="163" height="30" as="geometry" />
        </mxCell>
        <mxCell id="z_qD1HKAoeuYG7XRLIYZ-142" style="edgeStyle=orthogonalEdgeStyle;rounded=0;orthogonalLoop=1;jettySize=auto;html=1;exitX=0.5;exitY=0;exitDx=0;exitDy=0;entryX=0.5;entryY=1;entryDx=0;entryDy=0;strokeWidth=2;" edge="1" parent="1" source="z_qD1HKAoeuYG7XRLIYZ-143" target="z_qD1HKAoeuYG7XRLIYZ-147">
          <mxGeometry relative="1" as="geometry" />
        </mxCell>
        <mxCell id="z_qD1HKAoeuYG7XRLIYZ-143" value="Batch Normalization" style="rounded=0;whiteSpace=wrap;html=1;shadow=0;glass=0;sketch=0;fillStyle=auto;strokeColor=#000000;strokeWidth=2;fillColor=#FFFF00;gradientColor=none;direction=south;textDirection=ltr;horizontal=0;fontFamily=Times New Roman;fontSize=22;fontStyle=0" vertex="1" parent="1">
          <mxGeometry x="594.06" y="623" width="71.75" height="174.36" as="geometry" />
        </mxCell>
        <mxCell id="z_qD1HKAoeuYG7XRLIYZ-144" value="&lt;span style=&quot;font-size: 17px;&quot;&gt;&lt;font color=&quot;#ffffff&quot; style=&quot;font-size: 17px;&quot;&gt;Dense Layer&lt;/font&gt;&lt;/span&gt;" style="rounded=1;whiteSpace=wrap;html=1;fillColor=#FF0000;strokeWidth=2;fontSize=17;" vertex="1" parent="1">
          <mxGeometry x="392.4899999999999" y="685.9100000000001" width="143.37" height="46" as="geometry" />
        </mxCell>
        <mxCell id="z_qD1HKAoeuYG7XRLIYZ-146" style="edgeStyle=orthogonalEdgeStyle;rounded=0;orthogonalLoop=1;jettySize=auto;html=1;exitX=0.5;exitY=0;exitDx=0;exitDy=0;entryX=0;entryY=0.5;entryDx=0;entryDy=0;strokeWidth=2;" edge="1" parent="1" source="z_qD1HKAoeuYG7XRLIYZ-147" target="z_qD1HKAoeuYG7XRLIYZ-150">
          <mxGeometry relative="1" as="geometry" />
        </mxCell>
        <mxCell id="z_qD1HKAoeuYG7XRLIYZ-147" value="Dropout Layer" style="rounded=0;whiteSpace=wrap;html=1;shadow=0;glass=0;sketch=0;fillStyle=auto;strokeColor=#000000;strokeWidth=2;fillColor=#FFFF00;gradientColor=none;direction=south;textDirection=ltr;horizontal=0;fontFamily=Times New Roman;fontSize=20;" vertex="1" parent="1">
          <mxGeometry x="701.53" y="630.4100000000001" width="50" height="157.5" as="geometry" />
        </mxCell>
        <mxCell id="z_qD1HKAoeuYG7XRLIYZ-148" value="Output Layer" style="rounded=0;whiteSpace=wrap;html=1;shadow=0;glass=0;sketch=0;fillStyle=auto;strokeColor=#000000;strokeWidth=2;fillColor=#FFFF00;gradientColor=none;direction=south;textDirection=ltr;horizontal=0;fontFamily=Times New Roman;fontSize=20;" vertex="1" parent="1">
          <mxGeometry x="882" y="629.9100000000001" width="46" height="158" as="geometry" />
        </mxCell>
        <mxCell id="z_qD1HKAoeuYG7XRLIYZ-149" style="edgeStyle=orthogonalEdgeStyle;rounded=0;orthogonalLoop=1;jettySize=auto;html=1;exitX=1;exitY=0.5;exitDx=0;exitDy=0;entryX=0.5;entryY=1;entryDx=0;entryDy=0;strokeWidth=2;" edge="1" parent="1" source="z_qD1HKAoeuYG7XRLIYZ-150" target="z_qD1HKAoeuYG7XRLIYZ-148">
          <mxGeometry relative="1" as="geometry" />
        </mxCell>
        <mxCell id="z_qD1HKAoeuYG7XRLIYZ-150" value="&lt;font style=&quot;font-size: 17px;&quot; color=&quot;#ffffff&quot;&gt;Additional Layers&lt;/font&gt;" style="rounded=1;whiteSpace=wrap;html=1;fillColor=#0000FF;fontSize=17;strokeWidth=2;horizontal=0;fontStyle=0" vertex="1" parent="1">
          <mxGeometry x="791.08" y="610.5" width="51.41" height="196.82" as="geometry" />
        </mxCell>
        <mxCell id="z_qD1HKAoeuYG7XRLIYZ-151" value="" style="shape=image;verticalLabelPosition=bottom;labelBackgroundColor=default;verticalAlign=top;aspect=fixed;imageAspect=0;image=data:image/png,iVBORw0KGgoAAAANSUhEUgAAAZUAAAIACAYAAABKGPFWAAAAAXNSR0IArs4c6QAAAARnQU1BAACxjwv8YQUAAAAJcEhZcwAADsQAAA7EAZUrDhsAADwESURBVHhe7d0HmCxVufXx4wcoSpCMCAYURVBQsgkQL0FREAOIREUkmDBeMedr5oLpKioIGFByUFEEFLyIBCUpiCBIkChBQEHA+61VVX2Yc9gzU1V7V3eF/+951lNVB87M9HSffruq9n73w+aEbaLspmyorKA8XAGAvvs/5XblPuUu5UblqiKXK2cplyj+/xAwf1FZXDlE2SY7AgDM72/KmcoxytHKHQoKU4vKIsrpytrZEQBgNvcoJyhfVvz+OXj/r9jaAQoFBQDKW1jZVvmlcpriWweDNjpTWVX5vbJAdgQAqMtnLm9Urs2OBmZ0pvJqhYICAPG2UvwhfW9lusFQvTUqKusWWwBAPA96+qris5Yl/AdDMSoqyxZbAEA6L1F+o6yeHQ3AqKhw6QsAmvFUxfNbNsuOem7q6C8AQDMWU05UXpUd9RhFBQDGw51JDlfcraS3KCoAMD6+1fBNxSPDeomiAgDj5WHGX1H2yo56hqICAOPnwuIhx70rLBQVAJiMUWHZMzvqmbMVt3Kuk/UUAOiC9yqh97FJ5gFlV6UXOFMBgHK+pXxScev7lPw+fJCyc3bUcRQVACjHC3Z9QFlF+aLybyUVvxcfrHS+sFBUAKAarwy5j+IWLLf5DxLxcGMXlh2zo46iqABAPScpvqfs5YVTcWHx6ruvyY46iKICAPVdoTxPcdPIVFxYDlN2yo46hqICAHF8CWwLxevWpzK6FOa1rjqFogIA8e5QNldSrlO/oPJdZYfsqCMoKgCQxt3KlkrKwuIzlkOVztxjoagAQDouLF5O2OunpDK6x7J9dtRyFBUASOvvyouU1Dfvv6O0vrBQVAAgPd9j8c371IXFl8K2yY5aiqICAM0YFRb3VkxlIeWHSmsLC0UFAJozGhXWRGF5WXbUMhQVAGjW6IzlnOwojdYWFooKADTP/cJ8xpKysHjNexeWrbOjlqCoAMB4jArLudlRGi4sRygextwKFBUAGB8Xls2U87KjNFxYjlRaUVgoKgAwXk0WlpdmRxNEUQGA8XMTSheW32ZHabiwHKVMtLBQVABgMlxYPPP+ouwojdEZixcQmwiKCgBMzs3KfygpC8sjFJ+xuLnl2FFUAGCyRoXl4uwoDRcWn7Fsmh2NEUUFACavicLySOV4xV93bCgqANAONykuAL/PjtIYFZYXZkdjQFEBgPZwYXEBSFlYHqWcoIylsFBUgIfy9egllccrT1HWKfJ05UnKMspiCtCE0RnLH7KjNEaFZZPsqEEPK7buoLlevlvZ+krKfjZAk7wmhQvFk5UnKitP2T5OWVapwiv9XadcqVw13/ZSxQs2oT3eq/xXvluZ/977892xWF45VVk9O0rjH4rnsZyWHTXIReX/aqZuMQLGYQXF7Ss+oviT2q1K6HXcVK5QvLDSPsrzFc8jwOS4qISepzL5pDJuLiw+Ywn9PHXjD0IvUBpFUUFf+Maki8g3lWuU0Gt2krlT+anyJsVnRhivrhUVe4ySurDcpTRaWCgq6LKllG0VnxH4clPoddrW+IbspxWfxYwuR6M5XSwqtpLyJyX0c9WNC8vGSiMoKugaDzJxi4tjlfuV0Guza7lE8WWyJRQ0o6tFxVxYLldCP1vduLBspCRHUUFX+A3Xb7y+VxF6PfYh9yhefGnss6EHoMtFxXzJtBOFhaKCtnuq4stbfsMNvQ77Go+sfKXCpbE0ul5UrInC4iWPn61EY54K2s7/gL6u+N7DzornkAzJuop7OF2g+L4R4AEonm/y5+wojcWVk5QNsqMIFBW0lScY+gb2ZcoeyoLKkK2h+JLYmcrYWm6gtZooLI9WPDLRcw9ro6igbVw89lU8gfA9ysIKHvQc5RTFc2484x/DdbXiwuKJtqm4sPxMqV1YKCpokzWVXyufUhbxH2BanhXt0WIuvO4SgGFyYfF8kyYKS6375RQVtIHPRjzj3TelfQ8B5bifky8Rnq6s5j/AII3OWHx2n0rtwkJRwaT5NNs3oT+s0MKknucqXuvcZy2MEhumvyg+Y0lZWDx834Wl0gc9igomaRflF4qHCyOOz/Z81uJ7LUyeHKamCsvJSunCQlHBJHhY8IHKIYp7dbXNfYo7D3tkzYXKeUV8RuU/u1bxuP42eolylpKysy26w4VlM8Wv31RcWDzc2Pc8S2PyI8bFrSb8phd6LY0ztyseRfUVxTP03fLF9yWWVspyQfRZlof4+qzLk+NOVFx0Qt9znHEPNE+axLz6MPmxDC/vkPp16HVeSl9VoKhgHPxauUEJvY6ajj+5HaS8VnHxaPos3fNsXqx8Tjlf+bcS+rmajL+nB0DgQUMpKtZEYXF7JC8nMSuKCprmPlZu+x56DTUVX7L6T8UTBydtOWUHxQ0wx91q5qsKl7pzQyoqtqryVyX0eOrG/65mnT9GUUGTfBlmXG+kvqbsT+f+x9RWXqp4d8Wr743rDOb7ykLK0A2tqJgvWflMPfSY6saXjWdEUUFTtlH+pYReOynzK8W9sbrWzsWXKA5QvMxr6HGljHuIDb3dzRCLivmS7/VK6HHVzauUaVFU0IQtlXuV0OsmRfwp/3hlLaXrfHnso8ptSuixpopH3A35UthQi4qlvhR2o+JGlEEUFaTmCXn/VEKvmRRxi5I+vvY8+sxnLk2e3fnrD9WQi4qlLiyfUIIoKkjJl3RuVkKvl1TxPRo3V+wr/w6PUkKPPUXepgzR0IuKPV3xWUboMVaNL9t6Oe+5GBGC1PxJ+0eKh9Q2yRMo/aa7YnbUP16P3AMcXq74DSC1Lygvy3cxMF6byGvTe3h/LM/V2infzVFUkJJfT4cp/pQ9Dh4v77YkbqzYVx6C7Jus/r2m5OfqOwqNKIfpUmVzxVcUYr2u2GYoKkjp/Yon/I2Tb9J7Zcg+8817z9j3ype+3JDKosoPlD4XZUzvIsUtXW7Njup7prJsvktRQTpuvT2p2ds+/R7CzHGfWWyoeJZ0Kp4Y+uV8FwPkfnZuUeS2PnW5M/bz8l2KCtLw2gsHK5N8Pbl1vlu/951b3PvszGuopOLLF/QJGy6vY/T6fLe2ZxRbigqS8BDVJ+S7E+UVI/fOd3vtFsXXw4/LjtJwK5e5lzAwOJ4Y+/N8t5bHFVuKCqL5Hsqu+e7E+TTcl3J8/6HvPKl0OyVVYfHkyyHPX8GcOUcU2zrmNpmkqCCGm8p9Md+Ndn+xjeXXtLsR+6Z233mCZMrC8hrFbfwxTF4rqK6HtP9h8iPq+JASek1UjUc3raOkXGfFLVzepQyBl2H+sRL6PVTNH5Q+L+scM/mRTB8v4jUPigqqeqxytxJ6TVSJL+OMPh17ImPq9VY8yW8I67Z7sIRb14R+B1XjRcv6iqLSTLzkcIbLX6jLZykp5jfspZya72btud1p2Mv5pvIO5VCl723fvbyxZ8j7rC/W+5TF8l2glLm1hKKCOjxjfrd8N8q3FQ9FnuoMJfUnZc9j+anim9F9dpni+yIPZEf1+ff09nwXKGWBYjsXl79QhQtB6LVQJb52v4gync8oob8Xk2uUDZS+c+PD0OOvEp/xTNvWvMO4/NVMvODcPCgqKMv3PWLXSPGoJbd2mInvg3gGeejvx8TdjfdU+szNNt00MPT4q6SPAx0oKs1kblHh8heq8qWp2NFB+yluDzETv1B9iS1mQlaI33C/pvhsa6YzpS5z0ffvLvYymNvj93kkGBrEmQrK8I352JUJPRa+yg1+3zA+Uwl9rdi4vfzcnkU99Hkl9LirZAelT96thB4nicsvlAxnKqjCI7OWyHdr85lOlU67dypueOc5LKmtovxS8f0bn8H0jZtsxrY2373Y9sVNxRZpubDMgzMVlPErJfQaKJv/VeryPIzfKKGvmyJuA7620jceUh16vGXjSaTjWh9nHLzqYehxkrhwox6VeW3r0PNfJbEtQHyW9Gsl9LVTxPNj3HYm9mysTbwyn+f/hB5v2fRlGd2R85XQ4yT1M/fy1whFBbP5oBJ6/stmNMExlm+up2pJMl18icStwPtyefiNSuhxlo3vPfWJL6f6DCz0WEm9UFRQ2YVK6Pkvm5cqqXh2vJfXDX2flPHltvWVrvMIruuV0GMsG6/h0icfV0KPk9QLRQWVxF768oiv1J/6PY/lKCX0/VLGn2iPVuYuQtRRn1ZCj69s/kvpm7cqHjQSerykWigqqMQtO0LPfdk0MYnOy+repYS+XxPxnI8fKk9VuuhJSswlH6842UcrKb5n5Md3uxJ67GT2UFRQyU+U0HNfJr75nXpFwRcoKTok14kfj9drWV3pGo/QCT2mMnFBWl5Bf7khaei5LxNm1KM0L8S1cb5biz/BxM6VmMrL6J6opOiQXIcXI/Ka7hcrP1K6tKjVN4ttHb7cuFm+C0yPooLZ+EzUw1Lr8trXqbxB8Rt5G9qr+E12S+UUxZdO3Am57RMoj1fcd62ujYotMC2KCmbz7GJbh+9DHJPvRnFbbc96P1B5yLKlLeCRUR6N5vkg+ytrKG3k7gRueVPXc4otMC2KCmYTU1TOU2LbYjxe8RyX/8yO2m1pxW1oPPzaw5H3UNwJoE1+Vmzr8H2ktj0etAxFBbOJmadxerGty73GPPu5i5dd/Hv7unKj4stOOytteEP2YmV1+f2CgTmYEUUFM1lS8ZDLutyssQ43evTNeA/h9c/QZb7PspXiJY1dYI5TXGBSj4gry0U65uyx6/N10DCKCmYSM2zW91PcgLIK99zyJDuPrHqJ/yCxS5V/5rsT4QKzteICc4PiofwfU3yv4iHLsTbEQ4NjOj67ISMwLYoKZhLzqdSz6D2ZrIwVlM8qVytema+JUVQeoeU3bxdKX46atNGlJPdU881znz145r4XxlpXaXJAgleFrKuL83MwAUx+RIjf6EPPeZkcq8zEn8y3ULxksJf4DX2NVPGb6DLKVO5FdoUS+v/bkL8rvv/xIcVnbY9VUvHCW6HvWSa+hId+SjL5cYSigpDDldBzXiahXlGesOgOsf+txLZjLxt32J3uDdlnRG4hc6sS+rtti5tCukPzJ5TtFQ9lrjNnZ00l9PXLxJfPYuYtob0oKmhczDK+r1WepmynuMD4Rdf0Gcn8uVJ5gjKbpRQvvTvuny9V/qKcrHxF2VfxREz3RltZCa0x72LqSZChr1UmbjCK/qGooHHXKKHnvEzuD/zZOOM5Mr5XU4ULkIcB36uEvmZXc4viQQpeedP3kw5WYppxbqqgfygqaFxXP7l7gt/iSl2ecHmA4pFioa8/9PjSG/qHhpJolO9/NDEKq2nfUNyTyze66/IoNM+M92We/ZSYr9VHXZ87hPRcWDIUFUzH9xm6xJesvO6LW6P40lsKLi7vVHzm4jYx1yro3msDY0RRwXRiLh+Nm+8XuEeZmzk24Q7lc4oXunLrGHcmnvvJbIDo/4VpUVQwndCooTby5a51FLcfaZoX6HIrf9+oXk3x0GjfBB+aLl4WxZhQVDCdthcVj0x7ueLLXV5nfNz+qLxDWVHxz+GeXi46Q9CVDxyYAIoKprNQsW0bj8hyvyzPgZlt1v44eL6Hf45tFBeYvRTPhI9ZDKvtKCqYFkUF02njYli+9OTeUx9WJnF2Mhsvm+x5Lu4a4PXcPQnRP7PX0++TcTW/RAdRVNB2bgviRotuBumb5FcpXeBmmt9V/DO7zb3nAHjS4RDvwWBAKCqYTqphuXV5iLCX6HWr9VcqMe3aJ82X7DyTfTfFBebJyp7KEcrflK6Z9GsDLUZRwXQmddP5d4rnhHhuyC6Khwv3jZcF8Hr77ou2nPIsxS3vfW+mC0VmKAMSUANFBdMZ5xuHC8dHFN98X1vxnJDYte27wpf3LlDcFsajyFxkfN/I7em99IAbRfpeTZv0eRACEqH3F+bny06h5ztFPFPdl7Y8HJiOt+V4ZJnXVXmf4stmPqPzpMzQ77fpuKMz+iem99epSuZhxdZFpW5xWF85J99FjzxV8VyMGG5IeVkRr2vyB8VLDHflZnsXLK24xb1n+3s72l9J8cJk/u+pr0h8SnFxQ7+4qNQdpu+Gki/Md3OcqWB+j1NCz3eZeOST28iPPrRgslxcfEb4XMVr5L9O8ZtA6LkrE69Gif5JcqbCPRVMp+z68iFejdCXuPxiw+R5GLPPOr3o2mg9FZ851nVbsQUegqKC6dyp1L1Z74mTdZa5xfjEdBqmqGBaFBXMxDeC62LNjXbzvZa6Ys5i0XMUFcwk5s3D1/HRXjFFn6KCaVFUMJNbi20dHgKL9qq6fv9UXP7CtCgqmMl1xbYOjx5DOy2suF1MXX8ttsBDUFQwk5jlczlTaS/PYak73NvdoTlTwbQoKphJTFFx7y60U8xZJOv0Y0YUFcwk5vKXZ+SjnTzrvi6KCmZEUcFMvGRvXRSV9nLjzrpiXhMYAIoKZhIz69pDVmNuBqM5qxXbOty2H5gWRQUzuV6JmZPgFu5on5gzlT6ub4OEKCqYTcybyFrFFu3xKCXmngpFBSFz+/xRVDAbikq/eBG0BfLdyrygmJcxAKZFUcFsLim2daxTbNEeLip1Xal4jRxgWhQVzMYrDNbla/eL57toiXWLbR0XF1tgWhQVzOZcpe66KL7M4oWh0B7PLrZ1sMIrZkVRwWzckuOKfLeWDYstJu+xylPy3Vp+U2yBaVFUUEbMJ9SNii0m7z+KbR0+Wz0v3wWmR1FBGTFFZQPl0fkuJmyTYlvH5QqNJDErigrK+EWxrWMhZbN8FxPkrsQxz4PXtwdmRVFBGRcot+S7tby42GJyPJTYLe/rOqXYAjOiqKAMT3o7Pd+t5SVK3Ql3SGOrYlvXqcUWmBFFBWXFvKksr2yc72JCti62dbirQswyCBgQigrKOrnY1rV9scX4eRmCmJY5nKWgNIoKynLPp5iWLa9QfNMe47dzsa3rx8UWmBVFBVUcW2zrWFqJuQSDejzqa8d8t5Y7FW7SozSKCqqIKSq2R7HF+PheVkyr+x8pNJFEaRQVVOFJkDFrlHuexCr5LsbkTcW2rqOLLVAKRQVVuFXHEfluLb4Uw9nK+Hheyjb5bi3/VE7Kd4FyKCqo6qBiW9deyhL5Lhq2t7JgvluLL3f6ngpQGkUFVXlNjZg1VhZTOFtp3qJK7O/54GILlEZRQR3fLrZ17aM8Mt9FQ96iLJPv1nKNwqgvVEZRQR3fU2JGBHldj9gbyJiezwbfme/Wdqji9jxAJRQV1OHmkt/Pd2vbV2Gp4Wb4TNDzgup6QPlWvgtUQ1FBXQcU27r8pvef+S4SWkF5T75b2zHKlfkuUA1FBXW5Hf5p+W5t71Lclwrp/Jfim/Qx9iu2QGUUFcTYv9jW9Qjlv/NdJLCesku+W9tZyq/zXaA0z2HLUFQQ4wTl/Hy3ti0VN5tEnIcrvg8S+2/6c8UWqIWighj+dPLRfDfK1xWvuYL63qeske/WdpES298NA0dRQazjlN/mu7V5PsVX813U8EzlvfluFBcmhhEjCkUFsXy28uF8N4ovgb0+30UFvin/A8WXv2L4XsqJ+S5QH0UFKfjNKMXqgF9SnpXvoiSf4a2a70Z5f7EFolBUkMrblPvz3drcuuVIhYaT5eypxK7qaEcpLBmMJCgqSMU3eX3DPdaTFU++83BjTO8Fyhfz3Shub+/5QkASFBWk9CHFLVxi+Q3TBcrrr+ChVldceGPvo9gnlavyXSAeRQUp3aq8Nd+Ntqvi2eGYl5cG9sJZKS4R/lH5fL4LpEFRQWpuNOlr9Cm46eRn812IV3L8ufK47CiOhw7vrtybHQGJna14aGiduDUEMNVjFF8GC71e6iTFBMuucyHxmUXo91Mnn1KAqV6mhF4rZeIPO/OgqCC17ZTQ66VuvqIsoAzR0xUvmhX6vdTJhQoDITC/JEWFy19oyg+Vr+W7SbxROUIZ2oqRz1fOUHzpK4V/KDspXPZCozhTQRP8afhcJfS6qRuvj7+KMgReY95v/qHfQ928VgFCuPyFTvC8k9uV0Gunbvz1Xq701cLKQUrosceE/mqYCUUFnfEi5T4l9PqpG49ecluX2AWp2mYD5Q9K6DHHxGukpJjXgv6iqKBT3Cwy9PqJjZe93ULpOp+dfFpxq5vQ44zJFQpLC2A2FBV0zmeU0GsoRQ5VVlS6aBsl5XDhqblJeYoCzIaigs7xaMPvKKHXUYp4ZJML15JKF/jfzi+V0GNJkbsVX04DyqCooJM81+RwJfRaShW3i/EaL2295LOxcrzi+0Khnz9FXGA3V4CyKCrorAUVt7gPvZ5S5h7l28rayqR5fs2OSuoh1qH4DGVTBaiCooJOW0jxBMnQa6qJuDW/uyg/TRkXn5X5bOEQ5e9K6OdKnbuUFypAVRQVdJ7vsXhNkNDrqslcrPj7vlJZVklpNeXNytGKL8OFvn9Tcb81z8AH6khSVEbrVbio1C0O6yvn5LtALe9R3OBwEuun+B+Eh9xeUuRS5S+K36D/VmxHLU18duV5MW4776aZLkhu9LiG8owij1YmwY9hS+Wy7AiozkXl2Hy3slOUeS65cqaCSfP9Bq9CGHqNkZlzppL6jAvDE3OmcrKSoaEk2uK7ynn5Lipyg8ib811gsigqQPd5aDLQChQVAEAyFBUAQDIUFQBAMhQVAEAyFBUAQDIUFQBAMhQVAEAyFBX0xR6Klxf2+vVdcr7yJuX67AjoOIoK+uL3ylsVr/7oGeYnKP9S2ug6ZX/FLY7WUr6qtPVnBSqhqKBvvDiVW75srbjp4y6KFwVzx+BJulDxqpQbKo9X3q54bRWgVygq6LPblMOU1yjLKT4z8Jv5Uco1SlN81vE75cuKv7fPnp6p7Kv8SqGtCnqL1vdoE7/hPi/frcx/z916q/Ba9msqXgPlScrKykrK0oq7/rrFfYhb4bstvnOTclWRyxVfhnP7/PuUKvz3n5DvVuaf238fiBHT+t7rqWyW7+ZofY82cFEJvcbK5LlKE7z0sYuPs5j/oCEuCqHHVSZPVIBYtL4HxuB+xZfRnDv9BwCmx+UvNMmvrxUUX57xPY3RZSWvjriI8nDFfOwPOJsoy/gPaqhz+atNYi5//Vi5W3HRcxE0F0Eveja6THej4vtIVyujlSyBqbj8hVZZRXmV8jHlGMX3Fe5RQq+ZJtLU5a9xibn8VSUeJHCtcqpygLK74n/DowKP4Upy+WuEooIqfAayjvIuxQXEn4JDr41xhqISF5/VnKF8WvFa949SMCwUFYyVL1dtpxyi3KCEXguTDEUlbVxkfqp4CHbdy3LoFooKGvcI5ZXKDxVfsw89/22J/0F0lQu215gPPa42xJfMfq24wDxWQT9RVNCYVRVfBvEcjNBz3sb4JvWmStd4LkzMUOpx5wHFbyDbKh5ujf6gqCAp3yd5qeIbuKHnuQtxixY/hq5wG5kLlNBj6UL+orxTWVxB91FUkIQ/be6mXKKEnt+uxS1SdlTazhMW/6SEHkPXcofyOWV5Bd1FUUEUzwvxJYzLlNDz2uX4HsDblLZyWxjPGQn97F2O77t5mDLFpZtiisrPlHlQVIZlC8U9qkLPZ5/yAaVt/O/lFiX08/Ylf1feqyysoDsoKqjMN+BPVELPY1/zBWXUOWLS3DHAb7ihn7OP+bPi0YPoBooKSltIeY8yzhnubYrb3096pJIHEHggQejn63vcRoa5Lu1HUUEpz1YuVkLP3ZDiNVQ872YSdlbcCj/0cw0lHvK9j0IT2/ZKUlR4gvvLn8x9dnK68nT/wcC9QjlJabJ9fcgblW8rQ5/TsajiJZTdePBx/gP0E0Wln9zc8X8VT2D0pS/kXqB46ONS2VHzPqR8ReHf2YN8X8lzczzyED1E6/v+8SnsoUrbJ6SdpxyY72bzHEJL7Hr0kNd1d/v8lHw5cHPl+uwoPf+72k9JPazZlxk+rvjnD/FZmM+I1lDe7D9ouS8pnjxZdZVMNMPvHXVb3/vDmv9NzcU9le7zG5kvd7mNRuh5alt8jd3rqMymqUmCVyo+o0ttAeWbSuh7xsTrpHiSahnfUUJfo41xixr6ibUDN+oxl69XH6+Enp82xw0Ky/CbzkVK6GvE5K/KM5RUPBDgaCX0vWLijsHbKGX4rM6LcIW+Tlvj9V2epWCyKCrI+A3Xl5JCz01T8fwDL8blG6+h/142Vyhl7zf4PshZSujrxMSrIm6gxHJh9yWA0PeIic/oXqiU9VEl9HXKxourvU45TRnnWa8fp9dxweRQVJBNZnRTv9Dzkjp3Kb6ss5Eyuhfn5YFj515srZTlN26PHgp9nZjEdjhuquB55r3vWZblM6XYtW48Wm3Ec0vcleByJfT/po7vrbxewWRQVAZudeU6JfScpIzb339EcQEJ+YYS+ntlc4pShZe9PUIJfa2Y+JKRl0Ouyp2Gz1dCXzMmHkSwplLFa5XQ1yobr2vvwj0/n01upZyphP5eynjARtnLokiLojJg6yq+bBN6PlLFZ0B7KY9UZuKRRqG/XyX+GlX4ZvjBSuhrxcQ3w33pp6wnKb6EF/paMfGZwcpKVb9VQl+vbD6vzMbDsv0GEvr7KfM+BeNFURkovwE32ZDQl7l8ZjJbMZnKZxuhr1U2Ptupypfg/CYY+nox8Sdlr70/m6Y6DbvR54pKVb4sGfp6ZeOCWqWQ+XJhE2doU+PRjBgfisoAPU25UQk9D7Hxm4on6i2rVOX7IqGvWTa+LzPd5bXZfFAJfc3YeD7IdHxjv4kzRS/ZW3di5pFK6GuWjUetVeUzxjcosfdxposL/N4KxoOiMjBubeGhl6HnIDb+dFzlhvD8fM099mauW6XX5Yl+TYxU+rIy/+i0/1B8Yz/0/8fEI8dC9zPK8A11fygIfd2y2Vipy4XQTTtDXzc2fl5fo6B5FJUB8UzpJi41+B+sF1VKse6FZ4+HvkfZeNBBTEuZHRSv+hj62jH5rjL6uXyz2nNGQv9fTI5TYp4Dr7oY+rpl8zslBQ8JbuKDjwdRVBlWjXooKgPhNzQ/YaHffUyuUtzBOBXPjo9dK+TVSgxfhmviTf8EZQ+liU7DBym+jFTXIsqtSuhrl02VwQmz8VnLMUro+8TElxt9+RfNoagMxBeV0O89JqcqyympuZdT6PuVjZtgxvJlHPcSC339tsW/r9hmk77nEPraZeMh46lXaPQgCre5T33m6KWvy7T2QT0UlQHwJZ3Q77xufOPTnYtjPhnP5ClK7L2NmHs7I+sofrMMff22xM9DLL95/0EJff2ycWeEprjAe75N6PvWjdsRxRZihFFUeu6Zyt1K6HdeJ171cTulaT9SQt+/bHzDN4WmhvzGxkU3VQfhLZTQ9ygb36toupmjBxG49Uvo+9fN+xWkR1HpMV+OuFAJ/b7rxHNP/AY0Dm5/HfoZysaXTOrM0wjxG9ofldD3mUSqTq6cjZfpDX2fsnE343HwfRYPlw79DHXie1vPVZAWRaXHPF8k9LuuE9/gfI4yTrEF0U0RU1le8eim0PcZZ3ym6NUnU2nLpcayPKDAK2+Gfo46cVPTtq8Z1DUUlZ56ieJ7H6HfddXcrExiKWG3dwn9PGXjyXQp15NfQvG6HaHvNY54VJzbm6QUOyjCfbzGzc9pysJyiIJ0KCo95E9eVyuh33PVeASUe4RNwqOU2Bnnuyop+Wf6iRL6Xk3Gv4eUQ7fNr5PYEW7juL8W4ufhdCX0M9WJ5w4hjZii8lNlHhSVdviaEvodV43bnqT+ZFxV7IQ8N0dMzR2Of6CEvl8T8SJgVZtlluEleEPfr2w8QTFmomksDwtOtQaQG596cjDiJSkqDM1rj+crnmAXy5fOtld+kR1Njluc+Jp/XWsp/p2k5P5inrk/Lp5g6ktvKXk4+Jvy3dp8z26S68L7LOvFipd0jvV4ZaY+bZgQzlQmy8X9HCX0+62aNrUMP0oJ/Yxl43VTUvAbj9vRxC4oVje+n+PLNKPFzWK8XAl9j7KJad6ZmteL8cjE0M9ZJS6QTZwRDg2Xv3pkdyX0u60at8dI8caVyrjbsc/Pf9fFxCOvQl9/3HH/tl2UmCsEPgMNfe2yOVBpE4+ISzEwxSuCIk7SovIbJfQ/lsmkbgb3hTvTpmgdfrFSt8ttk2KH835GqcqfWr+nxHbubSoecu1LlFU7G3hCbOjrVUkbP9G7u0DoZ60aj5xEfUlHf8WMivEEM9TnNcBDv9cq8Sfxtp7+xy5x62aJnuNQht90D1Vi52+MK55r4R5ZZYdPu/lk6OuUTVs/zfvM7Qwl9DNXiYs194nrS3qmsp8S+h9ni2+4TXIUSdd5FEyKxZ7erbSV3zBjz8T2VGbiG/ruJJxqfs+44xFMLi4zrbbpxdNiOzC3efjtk5UU69Rsq6CepGcqGyqh/3G2eK0J1OdmfqHfa5X4E15TDSJTiX2cvrQXulfk1jMp5zxMOh6C/A4ldGbmflehv1M2XkSt7Z/i36qEfvYq8YJznK3Uk7SomNuhh/7n6eIRF6srqMf3P2LXwXDDSX/Cazs3LXTzwtBjKJvNFHNx8Ys/ZnBJ2+NOCC4iozbvvhoQu/iVF1FrOxeD2IEIzjYKqkteVHxvpMr65/5EhfreooR+r1XyYaUrfFYbegxl4+7HXlY2ZaPNtud25ROKuxqH/nvZuE1MV/pkPUOJXQzNQ7hRXdJ7KiN+Qq9QQn9pFI+o8Yxe1OfLVbP9nmeL27m45UVXuHlh6HGQ5uOF3rokRUPVcTdR7YPkZyojvp7rU29fg536lzxJyS0uXHgQxzdMp/5u68Sf2rsmZfvzccb3dI5U2jpEeaZ4JJw7GneJJ2fGXhoeV1v/PmmsqEzla+FeRc9rQ7tvEtLw6nWhJ6Zs/ObcpkmOZXluRujxtDXnKp7BPrrx+1TFw3pTL5PbZDwqroveroQeT9l4pJzXcUF5jVz+QvNWUmI/8W6pdNGCShtXY5w/s7VVmXTblyrZVOkiX9qtco83FI8mQ3kUlY5yb67Qk1I2nqHexbOUkdihsU3Gp/BeV72sFZQvKCn6VzWR6YZid0WKfysoj6LSUbGjlya1DkYqyyht+4R/shKz5okf00eU2PsAqZOi6/UkecTabUrosZXNagrKoah0kO9NhZ6QsvmT0vaJjmV8Swk9vnHGN7A98MStXVLxvBK33fE8k9D3HGfcqaFLowOnE9sX7EMKyqGodJBf4KEnpGz2VfogRWPEuvFN9m8rqypN8QhKD7v3DPnQzzCO+M24Dzy5N6b9zkUKyqGodFDMLHDf3PdN/r44TQk9zqbiGf1uNjnO4bUeMelW9z7DDP1MTcWTBx+n9EXsLPsnKZgdRaVjfN09pnvuiUqfuJVG6HGmjm+ie6TWJAuy26y4uFyihH7G1PFlvT7x7y70OMtmLwWzo6h0zI5K6Mkom1cpfeJ7Q279HnqsKeIO2p9U3N23LfyYx9FqJvUyzJPme0N+PkOPtUyOUzA7ikrHxKyF4dFSM7VF7yrfdwg93pjconxQSb02fEoe5usztVRLSE+NJ2z20feV0OMtExekPgxwaRpFpWNirqt3dVb0bDxkNOYT6NR4opyH9Y46+3aFzyq8eFboMdXJTkof7ayEHm/ZrKVgZhSVDllOiRnBsrfSV59SQo+5bK5S3qQsrHSZ1/P3P8zQYyyby5S+tlPyPcmYThTuCo6ZUVQ6JPamtNuC9JXPVuqcxfkNdDelbyuPupuz7wFU/RDiN9zNlT6LaUjqy2eYWUxROUnBGPmyTOiJKBOPGOo7N2r0krqhxz9/PO/AN7v7fo18TeVwpcyIQQ8hfoPSdzEriA7h31EsikqHHK2Enogy8dyKIfDlDU9KnG6Bpt8oPuPrci+rOjxJ07+Xe5TQ78U35vs22ms6L1VCv4My8ZlcHwe7pJSkqAztH+ikeG2ausv+utPql/LdQfCkPa8975Y2bjnveybuzTX0T5oezebOyT6r82CE65RfKi62/kc9BMsrN+S7tayrnJfvIsBF5dh8tzLfU3lRvoum+dNRzE16VrADHlT2MmkoHkGG6SU5UxktPoTmeO3/umeEPmU/P98FIJ7bU9fKxRYNoqg074nFtg5f+vEKdgBylxbbOmL+LaKk2YqKh2uuqCyaHaGOmBeyT/UBPCjm3wRnKs2ZezUmVFQ8VNPj/72kqkecXKvcqVyt7K+4yKA8rw5Yl89UADwopqjE/FtESfMXFY+88WgSL6L0PGXqf/d/20fxpDM3R0Q5SxfbOjhTAeYV80Er5t8iSppaNNxK5HRlnexoeu4YepjCSIpyYl7I1xRbADlfMalrSWW2S/6INPUXfKBS9vq/r59V+f+HbKliW4cvOwJ4kC/Je4JsHb6037WGo50zKio+O/EY5SrcwO99+S5mEDOL9+5iC+BBXgqiLmbVN2xUVLYttlW9QmGdgpnFdI2N+ccD9FXMh62+dnGeNE+AzIyKipvX1eH7BYwGmxlFBUgr5t/FI4otGjIqKjE3k9u0XGsbxbRm9/VjAPOKmRDMmUrDRkUlprHk6GsAwDjMvdRSA010G0ZBAAAkQ1EBACRDUQEAJENRQazVlJ0ULybmrReRQjd44S/PT3uzsruyidK3Nf8xIWcrUxdcqZL1FEzPa6qHfm9l8gylrV6seK2X0M/tJW43VdBOKymHKP9S5n/ublXer3hyc1tdoMz/c5dN3ekTQ5Bkka4Rikpz+lhUPqmEft6p8WqXH1TQLl5J9CYl9JxNzVlKW6cLUFSawcqPmIh3KmXa83jo5seUvbIjtMGTlROVMsViA+UYhXkdqISigiq8NLLPUqrYT/HlFkzel5QqDU69/MXe+S5QDkUFVfiGbtU2F27g94Z8FxO0uuL7YFX5zJQJgyiNooIqtiy2VdX9e0inTkExL863Rr4LTMv3VTIUFVRRd43vJxVbTE7Mc8Da7iiNooKyFlTqrkWxeLHF5CxabOtgYSuURlEBACRDUQEAJENRAQAkQ1EBACRDUQEAJENRAQAkQ1EBACRDUQEAJENRAQAkQ1EBACRDUQEAJENRAQAkQ1EBACRDUQEAJENRabeLFC9+04bcp9TltvmhrznO3K/8VfG6669SxrmaodeE/7ByjnKHEvr5ms4uSl2HKKGvOamsqaClKCoYigWUFZRtlCOUM5VxrJ2/k3K58hFlXYW1ZdBrFBUM1bOVs5QVs6NmvFE5TKGQYDAoKhgyF5Tv5bvJraUckO8Cw0FRwdBtpGyZ7yb1ccX3koBBoagAc+a8ptimspSyRb4LDAtFBchvoKf0LIWzFAwSRaV5DxRbtNcyxTaVJYst2od/jw2jqDTvpmKL9rq52Kbyt2KL9rm+2CItzx/KUFSad26xRXt5UmJK5ysxk0XRjKuUW/NdNIWi0rzDlblVHK30/WKbyu3KSfkuWuS7xRYNoqg070KFF3N7naY0UQA+qHC20h6+xPmFfBdNoqiMh2dWu48X2uVqZcd8N7kLlDcrnKVO3r2K+73dlh2hURSV8bhT8SS747MjtMEZynOUJm/cHqjsoPhyGCbjL8oLlNOzIzSOojI+fmN5mbKp4n5QvmnoT1AYD1+KulY5UnFTyY0Vdy1umu+praJ8QDlb4UZxs3xmeINyquIrBE9T3OMNY+YXu5+MOllPAQB0mz/0ht7jy+THSoYzFQBAMhQVAEAyFBUAQDIUFQBAMhQVAEAyFBUAQDIUFQBAMhQVAEAyFBUAQDIUFQBAMhQVAEAyFBUAQDIUFQBAMhQVAEAyFBUAQDIUFQBAMhQVAEAyFBUAQCyv/pihqAAAkqGoAACSoagAAJKhqAAAkqGoAACSoagAAJKhqAAAkqGoAACSoagAAJKhqAAAkhlyUXm+8i3lD8qtytXK8cquykJKkzZQvqFM/d4/Vl6vPFwBgE47W3HvljpZT+mSxZQjlNBjGeWPyjOV1BZRvquEvucof1K69jsF0H0vU0LvSWXyI2UeQykqflM/Vwk9jvlzt/IiJZVlld8qoe81f/y9N1QAYFySFJWhXf76qrJOvjurRynHKa/IjuKsqPxSWSs7mp2/9w+UpbIjAOiIIRWVNZSd893SfH/Db+5V/95UKytnKKtlR+WtoLw93wWAbhhSUdlReVi+W8mCyiHKPtlRNU9TTldcWOqIKWYAMHZDKirPLrZ1uBjtr7wnOypnbcUFZaXsqJ4nKI/JdwGg/YZUVJYstjE+rXwi353Rc5VTFN+cj8V9FQCdMaSicnuxjfV+xTf8p/vdvUA5SVkiO4r3t2ILAK03pKLi4byp7K18U1kgO3qQh+S5oHguTArXKTfluwDQfkMqKt8vtqm8TvHXHM2A30E5UnlEdpSGR555DDgAdMpQJj8erYQeQ0xOVN6iPDDlz1LkNiXFPRkAKIPJjzXsrrgFS0ovUb6opPxdukDtotycHQFARwytqLh54ybK77OjdvqX8hrlhOwIADpkNBnQl7/qXsZaXzkn3+2M5ZSfKs/KjtrjXmV75djsqD8eqayi+PdeZwIq0Hb3KTcobgj7b/9BB/nyV933Hl/+emm+mxtSl+IRD/k9Uwk9pknkLmVTpU9WVw5X3CAz9JgJ6VtuVD6nLK10Tcw9Fd9bzgzt8tdUnreymXJydjRZo5/l59lRP+ypnK+8WnGDTGAIfDb+LsWX2D0JenCGXFTMn6C3UiZ5ucmfbDxh8tfZUT94kMHXlKYXOwPaannFl9jdyHZQhl5UzPcxtlUOy47Gyys+bqRckB31w2OV/8l3gUFbVPmOMqj3WYpK7n7Fkxk9S35crlQ8Eu2y7Kg/3qlwuQvIral42sFgUFQe5Lkheyj7ZUfNukTxGvl/zo76ZZtiCyA3qH8TFJV5eRSDP2nvmx014zzFl7z+mh31i1vW1F07Bugrr6s0GBSVsCMUT5RswkHKLflu73g+CvNQgHktUmwHgaLyUP5U4fXkm1rH5MvK2/Ld3rlD8Yg6AA9yt/HBoKjMay0ldrXG2fiT/H8rH86O+ucXxRZA7tRiOwgUlQe53YwnH46rM/BHFK8k2TffKLYA5sz5h/K9fHcYKCo5Tz50QRn30r1e836mVSS76DjFk74AzJnzceX6fHcYKCp5E7SfKKlWa6zKq0geqiyYHfWDuyy7RQswZIcon8l3h2PoRcVvfl64a+HsaHJ2VFKvGjlJXmDM83DcqsUTS4EhcS8/D8bxhGpPUxiUoba+N090dDuRNhVWnzG9UvlndtQPT1T8mJ6puB8SZ8foI6+D5MtcZyi+BOzC0jW0vo/wZsVrHoQez6Tj4cyLKwAwTrS+r+kDypeUtk7S82z7nyluRgcAnTK0orKT4tEYKflS1aX5bjIbKN/PdwGgO4ZUVB6teNJhSncqL1a8GM9Z/oOEfH3yFfkuAHTDkIrKDsoy+W4SHuG0ueJ7IN73UsCpV5F8S7EFgE4YUlFxAUjlBmVjZerZiXteba2ckB2lsaHiJo0A0AlDKipPKLaxRqs1XpQdzesexcNnD8+O4i2gPD7fBYD2G1JR8SJcsUarNf4pOwq7T/GAgFSrSHr8OwB0wpCKyuXFti6fmfiGfJnVGkerSO6fHdXnM59B9Q0C0G1DKiqerV6XJ4e66aTvpZTlCUFvVz6WHdXjltkuLADQZn6/m8cQZtS7r5bvh4Qew0zx+iCxzSbfpdSZwe9LbQAwDjEz6ucOUBrSmcq9yq5KlQaHPrvxPBTPR4nxeWUvxYWlLDdjPC3fBYBuGVLvr+0Vz4IPPZapOVh5uJLSdspdSuj7Tc1hSl86FgPohiRnKiNDayj5DMUN0HxDff7H45Yrr1aaspriTqCh7+1RZZ6k2da+ZAD6K0lRGXLre1tO8Ygut2T35MULlND8kyb4ez+v2Prsxd/3QgUAJiGm9b0/pG+V7+aGdqYCAJgXN+oBAO1CUQEAJENRAQAkQ1EBACRDUQEAJENRAQAkQ1EBACRDUQEAJENRAQAkQ1EBACRDUQEAJENRAQAkQ1EBACRDUQEAJENRAQAkQ1EBACRDUQEAJENRAQAkQ1EBAMTyksIZigoAIBmKCgAgGYoKACAZigoAIBmKCgAgmSEXlUWUVysHKD9Qvqm8WXm80rRHKtsq/t6HK/7eb1eeqABA552teEhYnayndM0blJuU0OP5l/I1xUWnCbsq1yuh732/4gKzhAIA4/QyJfS+VCbHK/MYUlH5shJ6HPPnImUlJRWfFX5JCX2v+XOx8lgFAMaFolLD25TQY5guf1aerMRaUDlMCX2P6fIrxX8PAMaBolLR0sqdSugxzBRfqlpDqevhypFK6GvPltcpADAOSYrKkG7U+w160Xy3kscopyrrZEfV+L7Micors6Pq3lhsAaAThlRUNim2dSyjnKI8Pzsq59HKScpm2VE9ayv+OgDQCUMqKisW27r85v5TZYvsaGZLKv5/qxShED8/PlMCgE4YUlG5t9jGeJTia4czXc5yEfilskF2FC/Fzw0AYzGkonJpsY3lG++esLhTdjSvlRWP2oq5sT/VXcq1+S4AtN+QispxxTYFD/U9RNkrO8o9TTldSTEEeeTHiidEAkAnDK2oeEJjKv7dfVV5t/J0xSPEUk6W/Lfy2XwXALphSEXlAcXDiu/OjtJ4mOI3/nOUFfwHCX1cOS/fBYBuGFJRMb9J+yb7P7OjdNwgMiX3HvtovgsA3TG0omKjYcF/z47ax/3BPOnRs1QBoFOGWFTsDOWFyi3ZUXt8Rnmr0peC4gENOysehn2N4uHRU1s7ENKX+LL6ZcrByguUwRta6/uR1ZTrlNDjGmd8U/4dSp+srrjbcujxEtL3HKN0rRsGvb8SuETxrHd3I54UDyDYQ9kvO+oHz9M5U/GoOGCItlE8CXqx7GhAhl5U7ErFfcF86jpunoOym+KFufriEUoXP6UBqT1T8bSDQaGo5K5WNlIuyI7Gw/cXtlMOzY76w2ddKSeAAl22o+LiMhgUlQfdqPgG26+zo2b5pt5Wij/R943/EQHIeS7b9vlur/m+SoaiMq/bFbeq/3l21Ax/j82Vk7OjfvHrqc66M0CfrV9sB4Gi8lA+i9hWuTU7Sm9vxTex+8j3UVgCGZjXssV2ECgqD+X29u5CvFR2lJ5v3KVqi982dyg0wATmdXOxHQSKyrz8SftnSpmFuOryAl6+vObJl33j+Tbn57sACr8ttoNAUXmQz0zcwuV52VGzvFb+CUqTxWtSfJYHIOcb2D/Id4eBopLzao2/UMZ5WarMKpJd9D+Kh2gDmDPnSOXcfHcYKCpz5jxBcS+wVKs1VuFVJP0p5rXZUT/8Q3GhTLnEANBFf1T2zHeHY+hFxas1evnfVbKjyVhAOUjZJzvqB38y21CZZPsbYJI8ZcAtoG7LjgZkyEVlLcXL/6ZcrbEuT5DaX/lQdtQPv1PcsNNt/E9TBvePC4PieyfXK77c5YnNnovWti7oYzW0LsX+mf2Ehx7PpPNpBQDGLaZLsZdrzwzxTMVDef3JeensqH3eo/isBQA6Z2hF5VnKscoi2VE6/yq2qfj+ygfyXQDojiEVFT9W3xBPvb6BV2t8rpL6+qnXqF873wWAbhhSUdla8c35VHwd0WcU+yrnKV6TxTfqUvFz8+58FwC6YUhF5eXFNgWv1ri78sXsKOelc70my1+yozReqtCgEUBnDKmorFpsY92n7KD4Utr8Lleeo/w+O4rndi4r5rsA0H5DKipe5jbWaLXGH2ZHYb4E5hFmqVaRTPFzA8BYDKmoxN7vuFN5keLRY7O5SfE9lt9kR/W566+/FgB0wpCKiuem1OXZ4F4R0k0ny6rzd+bnNvJeKRIAOmFIReVg5a58t5KYs44qZzchXtALADpjSEXF80g896OKaxSP6Iq5P+L7MK9WZroPE+Iidmi+CwDdMpTeX27c+HUl9DjmzyWK2+Kn4m7EByqh7zV/LlXa0OgSwHAk6f01MrSGku6cO11DSa+x/i0l9cz7kdcrvqQW+t6e//JtxUsOA8A4JSkq/uRuLip1i8P6yjn5bqcsrnhyodc88MqPvv9xoXKM0vQ6IJ5/4vbYvrS2vOLvfZHiey+e6wIA4+aiUvf+r1ex9d+fa2hnKgCAecWcqcwtRkO6UQ8AaBhFBQCQDEUFAJAMRQUAkAxFBQCQDEUFAJAMRQUAkAxFBQCQDEUFAJAMRQUAkAxFBQCQDEUFAJAMRQUAkAxFBQCQDEUFAJAMRQUAkAxFBQCQDEUFAJAMRQUAkAxFBQCQDEUFAJAMRQUAkAxFBQCQDEUFAJAMRQUAEOv/ii1FBQCQDkUFAJAMRQUAkAxFBQCQDEUFAJAMRQUAkAxFBQCQDEUFAJAMRQUAkAxFBQCQDEUFAJAMRQUAkAxFBQCQDEUFAJAMRQUAkAxFBQCQzMOK7dnKevkuAACVHKu83DucqQAAkqGoAACSoagAAJKhqAAAkqGoAACSoagAAJIZFZUHii0AAFXNrSGjonJTsQUAoKobiu3conJesQUAoKpzi+3cGfWrKr9XFsiOAAAo5y7licrffDA6U/mjcnC+CwBAaZ9VsoJiozMVW0T5pbJOdgQAwMx+omylPORGvd2tbKIclR0BABD2b+VryjbKPKOHp56pTLWxspuykbKC8ggFADBc9yjXKKcqX1d+p8xnzpz/D+u5V0TqiksUAAAAAElFTkSuQmCC;" vertex="1" parent="1">
          <mxGeometry x="51.25" y="625.6800000000001" width="120.19" height="151.95" as="geometry" />
        </mxCell>
        <mxCell id="z_qD1HKAoeuYG7XRLIYZ-152" value="&lt;font style=&quot;font-size: 17px;&quot;&gt;Additional Layers&lt;/font&gt;" style="rounded=1;whiteSpace=wrap;html=1;fillColor=#FFFFFF;fontSize=17;strokeWidth=2;horizontal=0;fontStyle=1;rotation=90;fontColor=#000000;" vertex="1" parent="1">
          <mxGeometry x="457.16" y="850" width="51.41" height="176.82" as="geometry" />
        </mxCell>
        <mxCell id="z_qD1HKAoeuYG7XRLIYZ-153" value="" style="whiteSpace=wrap;html=1;aspect=fixed;rounded=0;shadow=0;glass=0;sketch=0;fillStyle=auto;strokeColor=#000000;strokeWidth=0;fillColor=#FFFF00;fontSize=20;" vertex="1" parent="1">
          <mxGeometry x="188.68" y="1006.09" width="84.82" height="84.82" as="geometry" />
        </mxCell>
        <mxCell id="z_qD1HKAoeuYG7XRLIYZ-154" value="" style="whiteSpace=wrap;html=1;aspect=fixed;rounded=0;shadow=0;glass=0;sketch=0;fillStyle=auto;strokeColor=#000000;strokeWidth=0;fillColor=#0000FF;fontSize=20;" vertex="1" parent="1">
          <mxGeometry x="202.68" y="1021.5200000000001" width="84.82" height="84.82" as="geometry" />
        </mxCell>
        <mxCell id="z_qD1HKAoeuYG7XRLIYZ-155" value="" style="whiteSpace=wrap;html=1;aspect=fixed;rounded=0;shadow=0;glass=0;sketch=0;fillStyle=auto;strokeColor=#000000;strokeWidth=0;fillColor=#FFFF00;fontSize=20;" vertex="1" parent="1">
          <mxGeometry x="217.68" y="1040.0900000000001" width="84.82" height="84.82" as="geometry" />
        </mxCell>
        <mxCell id="z_qD1HKAoeuYG7XRLIYZ-156" value="" style="whiteSpace=wrap;html=1;aspect=fixed;rounded=0;shadow=0;glass=0;sketch=0;fillStyle=auto;strokeColor=#000000;strokeWidth=0;fillColor=#0000FF;fontSize=20;" vertex="1" parent="1">
          <mxGeometry x="234.68" y="1061.09" width="84.82" height="84.82" as="geometry" />
        </mxCell>
        <mxCell id="z_qD1HKAoeuYG7XRLIYZ-157" value="Convolutional Layer" style="rounded=1;whiteSpace=wrap;html=1;fontSize=17;strokeWidth=2;fillColor=#FFFF00;fontStyle=0" vertex="1" parent="1">
          <mxGeometry x="152.26" y="1170.09" width="185.66" height="51" as="geometry" />
        </mxCell>
        <mxCell id="z_qD1HKAoeuYG7XRLIYZ-159" value="" style="whiteSpace=wrap;html=1;aspect=fixed;strokeWidth=3;fillColor=#FFFF00;" vertex="1" parent="1">
          <mxGeometry x="463.88" y="997.09" width="38" height="38" as="geometry" />
        </mxCell>
        <mxCell id="z_qD1HKAoeuYG7XRLIYZ-166" value="" style="whiteSpace=wrap;html=1;aspect=fixed;strokeWidth=3;fillColor=#FFFF00;" vertex="1" parent="1">
          <mxGeometry x="463.88" y="1111.09" width="38" height="38" as="geometry" />
        </mxCell>
        <mxCell id="z_qD1HKAoeuYG7XRLIYZ-167" value="" style="whiteSpace=wrap;html=1;aspect=fixed;strokeWidth=3;fillColor=#FFFF00;" vertex="1" parent="1">
          <mxGeometry x="463.88" y="1072.09" width="37.97" height="37.97" as="geometry" />
        </mxCell>
        <mxCell id="z_qD1HKAoeuYG7XRLIYZ-168" value="" style="whiteSpace=wrap;html=1;aspect=fixed;strokeWidth=3;fillColor=#FFFF00;" vertex="1" parent="1">
          <mxGeometry x="463.88" y="1035.0900000000001" width="38" height="38" as="geometry" />
        </mxCell>
        <mxCell id="z_qD1HKAoeuYG7XRLIYZ-171" value="Flatten Layer" style="rounded=1;whiteSpace=wrap;html=1;fontSize=17;strokeWidth=2;fillColor=#FFFF00;fontStyle=0" vertex="1" parent="1">
          <mxGeometry x="408.65" y="1170.09" width="140.69" height="51" as="geometry" />
        </mxCell>
        <mxCell id="z_qD1HKAoeuYG7XRLIYZ-188" value="" style="ellipse;whiteSpace=wrap;html=1;aspect=fixed;rounded=0;shadow=0;glass=0;sketch=0;fillStyle=auto;strokeColor=#000000;strokeWidth=1;fontFamily=Times New Roman;fontSize=20;fillColor=#FF0000;gradientColor=none;" vertex="1" parent="1">
          <mxGeometry x="665.8999999999999" y="1029.8799999999999" width="95.03" height="95.03" as="geometry" />
        </mxCell>
        <mxCell id="z_qD1HKAoeuYG7XRLIYZ-277" value="" style="endArrow=classic;html=1;rounded=0;exitX=1;exitY=0;exitDx=0;exitDy=0;entryX=0;entryY=0.5;entryDx=0;entryDy=0;strokeWidth=2;" edge="1" parent="1" source="z_qD1HKAoeuYG7XRLIYZ-159" target="z_qD1HKAoeuYG7XRLIYZ-188">
          <mxGeometry width="50" height="50" relative="1" as="geometry">
            <mxPoint x="677" y="1082.09" as="sourcePoint" />
            <mxPoint x="727" y="1032.0900000000001" as="targetPoint" />
          </mxGeometry>
        </mxCell>
        <mxCell id="z_qD1HKAoeuYG7XRLIYZ-278" value="" style="endArrow=classic;html=1;rounded=0;exitX=1;exitY=1;exitDx=0;exitDy=0;entryX=0;entryY=0.5;entryDx=0;entryDy=0;strokeWidth=2;" edge="1" parent="1" source="z_qD1HKAoeuYG7XRLIYZ-166" target="z_qD1HKAoeuYG7XRLIYZ-188">
          <mxGeometry width="50" height="50" relative="1" as="geometry">
            <mxPoint x="594" y="1151.09" as="sourcePoint" />
            <mxPoint x="724" y="1228.09" as="targetPoint" />
          </mxGeometry>
        </mxCell>
        <mxCell id="z_qD1HKAoeuYG7XRLIYZ-279" value="" style="endArrow=classic;html=1;rounded=0;exitX=1;exitY=1;exitDx=0;exitDy=0;entryX=0;entryY=0.5;entryDx=0;entryDy=0;strokeWidth=2;" edge="1" parent="1" source="z_qD1HKAoeuYG7XRLIYZ-167" target="z_qD1HKAoeuYG7XRLIYZ-188">
          <mxGeometry width="50" height="50" relative="1" as="geometry">
            <mxPoint x="908" y="1193.09" as="sourcePoint" />
            <mxPoint x="1038" y="1270.09" as="targetPoint" />
          </mxGeometry>
        </mxCell>
        <mxCell id="z_qD1HKAoeuYG7XRLIYZ-280" value="" style="endArrow=classic;html=1;rounded=0;exitX=1;exitY=1;exitDx=0;exitDy=0;entryX=0;entryY=0.5;entryDx=0;entryDy=0;strokeWidth=2;" edge="1" parent="1" source="z_qD1HKAoeuYG7XRLIYZ-168" target="z_qD1HKAoeuYG7XRLIYZ-188">
          <mxGeometry width="50" height="50" relative="1" as="geometry">
            <mxPoint x="758" y="1229.09" as="sourcePoint" />
            <mxPoint x="888" y="1306.09" as="targetPoint" />
          </mxGeometry>
        </mxCell>
        <mxCell id="z_qD1HKAoeuYG7XRLIYZ-281" value="" style="endArrow=classic;html=1;rounded=0;exitX=1;exitY=1;exitDx=0;exitDy=0;entryX=0;entryY=0.5;entryDx=0;entryDy=0;strokeWidth=2;" edge="1" parent="1" source="z_qD1HKAoeuYG7XRLIYZ-159" target="z_qD1HKAoeuYG7XRLIYZ-188">
          <mxGeometry width="50" height="50" relative="1" as="geometry">
            <mxPoint x="542" y="1037.0900000000001" as="sourcePoint" />
            <mxPoint x="672" y="1114.09" as="targetPoint" />
          </mxGeometry>
        </mxCell>
        <mxCell id="z_qD1HKAoeuYG7XRLIYZ-282" value="Attention Mechanism" style="rounded=1;whiteSpace=wrap;html=1;fontSize=17;strokeWidth=2;fillColor=#FFFF00;fontStyle=0" vertex="1" parent="1">
          <mxGeometry x="609.84" y="1170.09" width="190" height="53" as="geometry" />
        </mxCell>
        <mxCell id="z_qD1HKAoeuYG7XRLIYZ-285" value="" style="shape=link;html=1;rounded=0;strokeWidth=2;" edge="1" parent="1">
          <mxGeometry width="100" relative="1" as="geometry">
            <mxPoint x="47" y="841" as="sourcePoint" />
            <mxPoint x="930" y="838" as="targetPoint" />
          </mxGeometry>
        </mxCell>
      </root>
    </mxGraphModel>
  </diagram>
</mxfile>
